<svg width="49" height="48" viewBox="0 0 49 48" fill="none" xmlns="http://www.w3.org/2000/svg">
<rect x="0.5" width="48" height="48" rx="20.8" fill="#4807EA"/>
<path d="M35.1668 36V33.3333C35.1668 31.9188 34.6049 30.5623 33.6047 29.5621C32.6045 28.5619 31.248 28 29.8335 28H19.1668C17.7523 28 16.3958 28.5619 15.3956 29.5621C14.3954 30.5623 13.8335 31.9188 13.8335 33.3333V36M29.8335 17.3333C29.8335 20.2789 27.4457 22.6667 24.5002 22.6667C21.5546 22.6667 19.1668 20.2789 19.1668 17.3333C19.1668 14.3878 21.5546 12 24.5002 12C27.4457 12 29.8335 14.3878 29.8335 17.3333Z" stroke="#EAEAEC" stroke-width="2.66667" stroke-linecap="round" stroke-linejoin="round"/>
</svg>
