<svg width="1855" height="317" viewBox="0 0 1855 317" fill="none" xmlns="http://www.w3.org/2000/svg">
<rect x="895" y="51" width="131" height="48" rx="8" fill="#4807EA"/>
<path d="M922.568 82V67.6055H925.547V73.0938H931.172V67.6055H934.16V82H931.172V75.5742H925.547V82H922.568ZM942.686 76.8242C942.51 76.9349 942.331 77.026 942.148 77.0977C941.973 77.1628 941.729 77.2246 941.416 77.2832L940.791 77.4004C940.205 77.5046 939.785 77.6315 939.531 77.7812C939.102 78.0352 938.887 78.429 938.887 78.9629C938.887 79.4382 939.017 79.7832 939.277 79.998C939.544 80.2064 939.867 80.3105 940.244 80.3105C940.843 80.3105 941.393 80.1348 941.895 79.7832C942.402 79.4316 942.666 78.7904 942.686 77.8594V76.8242ZM940.996 75.5254C941.51 75.4603 941.878 75.3789 942.1 75.2812C942.497 75.112 942.695 74.8483 942.695 74.4902C942.695 74.054 942.542 73.7546 942.236 73.5918C941.937 73.4225 941.494 73.3379 940.908 73.3379C940.251 73.3379 939.785 73.5007 939.512 73.8262C939.316 74.0671 939.186 74.3926 939.121 74.8027H936.436C936.494 73.8717 936.755 73.1068 937.217 72.5078C937.952 71.5703 939.215 71.1016 941.006 71.1016C942.171 71.1016 943.206 71.3327 944.111 71.7949C945.016 72.2572 945.469 73.1296 945.469 74.4121V79.2949C945.469 79.6335 945.475 80.0436 945.488 80.5254C945.508 80.89 945.563 81.1374 945.654 81.2676C945.745 81.3978 945.882 81.5052 946.064 81.5898V82H943.037C942.952 81.7852 942.894 81.5833 942.861 81.3945C942.829 81.2057 942.803 80.9909 942.783 80.75C942.399 81.1667 941.956 81.5215 941.455 81.8145C940.856 82.1595 940.179 82.332 939.424 82.332C938.46 82.332 937.663 82.0586 937.031 81.5117C936.406 80.9583 936.094 80.1771 936.094 79.168C936.094 77.8594 936.598 76.9121 937.607 76.3262C938.161 76.0072 938.975 75.7793 940.049 75.6426L940.996 75.5254ZM954.307 75.1738C954.255 74.7767 954.121 74.4186 953.906 74.0996C953.594 73.6699 953.109 73.4551 952.451 73.4551C951.514 73.4551 950.872 73.9206 950.527 74.8516C950.345 75.3464 950.254 76.0039 950.254 76.8242C950.254 77.6055 950.345 78.2337 950.527 78.709C950.859 79.5944 951.484 80.0371 952.402 80.0371C953.053 80.0371 953.516 79.8613 953.789 79.5098C954.062 79.1582 954.229 78.7025 954.287 78.1426H957.129C957.064 78.9889 956.758 79.7897 956.211 80.5449C955.339 81.7624 954.046 82.3711 952.334 82.3711C950.622 82.3711 949.362 81.8633 948.555 80.8477C947.747 79.832 947.344 78.5137 947.344 76.8926C947.344 75.0632 947.79 73.6406 948.682 72.625C949.574 71.6094 950.804 71.1016 952.373 71.1016C953.708 71.1016 954.798 71.401 955.645 72C956.497 72.599 957.002 73.6569 957.158 75.1738H954.307ZM959.053 67.6543H961.787V75.4082L965.254 71.4043H968.701L964.98 75.4766L968.848 82H965.488L962.939 77.4492L961.787 78.6504V82H959.053V67.6543ZM973.076 70.0859H970.254V67.5176H973.076V70.0859ZM970.254 71.3555H973.076V82H970.254V71.3555ZM981.68 71.1016C982.78 71.1016 983.678 71.3913 984.375 71.9707C985.078 72.5436 985.43 73.4974 985.43 74.832V82H982.578V75.5254C982.578 74.9655 982.503 74.5358 982.354 74.2363C982.08 73.6895 981.559 73.416 980.791 73.416C979.847 73.416 979.199 73.8164 978.848 74.6172C978.665 75.0404 978.574 75.5807 978.574 76.2383V82H975.801V71.375H978.486V72.9277C978.844 72.3809 979.183 71.987 979.502 71.7461C980.075 71.3164 980.801 71.1016 981.68 71.1016ZM992.578 79.7148C993.229 79.7148 993.779 79.4707 994.229 78.9824C994.678 78.4876 994.902 77.7031 994.902 76.6289C994.902 75.6198 994.688 74.8516 994.258 74.3242C993.835 73.7969 993.265 73.5332 992.549 73.5332C991.572 73.5332 990.898 73.9922 990.527 74.9102C990.332 75.3984 990.234 76.0007 990.234 76.7168C990.234 77.3353 990.339 77.8854 990.547 78.3672C990.924 79.2656 991.602 79.7148 992.578 79.7148ZM991.885 71.1016C992.419 71.1016 992.884 71.1829 993.281 71.3457C993.958 71.6257 994.505 72.14 994.922 72.8887V71.3555H997.627V81.4531C997.627 82.8268 997.396 83.862 996.934 84.5586C996.139 85.7565 994.616 86.3555 992.363 86.3555C991.003 86.3555 989.893 86.0885 989.033 85.5547C988.174 85.0208 987.699 84.2233 987.607 83.1621H990.635C990.713 83.4876 990.84 83.722 991.016 83.8652C991.315 84.1191 991.82 84.2461 992.529 84.2461C993.532 84.2461 994.202 83.9108 994.541 83.2402C994.762 82.8105 994.873 82.0879 994.873 81.0723V80.3887C994.606 80.8444 994.32 81.1862 994.014 81.4141C993.46 81.8372 992.741 82.0488 991.855 82.0488C990.488 82.0488 989.395 81.5703 988.574 80.6133C987.76 79.6497 987.354 78.3477 987.354 76.707C987.354 75.125 987.747 73.7969 988.535 72.7227C989.323 71.6419 990.439 71.1016 991.885 71.1016Z" fill="#EAEAEC"/>
<path d="M1292 161.5V128" stroke="#38E0B7" stroke-width="4"/>
<path d="M-2058.51 136.705V184.039L960 184.039M1805.55 255.041V184.039L960 184.039M960 184.039V82.5" stroke="#4807EA" stroke-width="5" stroke-linejoin="round"/>
<path d="M118.578 163.671C119.833 162.626 121.656 162.626 122.911 163.671L150.456 186.599C152.083 187.953 152.083 190.452 150.456 191.806L140.186 200.352L128.633 209.969C127.378 211.014 125.555 211.014 124.299 209.969L120.744 207.01L96.7545 187.041C95.1276 185.687 95.1277 183.188 96.7547 181.834L107.347 173.019L118.578 163.671Z" fill="#4807EA" stroke="#4807EA" stroke-width="6.31125" stroke-miterlimit="10"/>
<path d="M285.826 163.671C287.081 162.626 288.904 162.626 290.159 163.671L317.704 186.599C319.331 187.953 319.331 190.452 317.704 191.806L307.434 200.352L295.881 209.969C294.626 211.014 292.803 211.014 291.548 209.969L287.992 207.01L264.003 187.041C262.376 185.687 262.376 183.188 264.003 181.834L274.595 173.019L285.826 163.671Z" fill="#4807EA" stroke="#4807EA" stroke-width="6.31125" stroke-miterlimit="10"/>
<path d="M453.075 163.671C454.33 162.626 456.153 162.626 457.408 163.671L484.953 186.599C486.58 187.953 486.58 190.452 484.953 191.806L474.683 200.352L463.13 209.969C461.875 211.014 460.052 211.014 458.797 209.969L455.241 207.01L431.252 187.041C429.625 185.687 429.625 183.188 431.252 181.834L441.844 173.019L453.075 163.671Z" fill="#4807EA" stroke="#4807EA" stroke-width="6.31125" stroke-miterlimit="10"/>
<path d="M620.323 163.671C621.578 162.626 623.401 162.626 624.656 163.671L652.201 186.599C653.828 187.953 653.828 190.452 652.201 191.806L641.931 200.352L630.378 209.969C629.123 211.014 627.3 211.014 626.045 209.969L622.49 207.01L598.5 187.041C596.873 185.687 596.873 183.188 598.5 181.834L609.092 173.019L620.323 163.671Z" fill="#4807EA" stroke="#4807EA" stroke-width="6.31125" stroke-miterlimit="10"/>
<path d="M787.571 163.671C788.826 162.626 790.649 162.626 791.904 163.671L819.449 186.599C821.076 187.953 821.076 190.452 819.449 191.806L809.179 200.352L797.626 209.969C796.371 211.014 794.548 211.014 793.293 209.969L789.738 207.01L765.748 187.041C764.121 185.687 764.121 183.188 765.748 181.834L776.34 173.019L787.571 163.671Z" fill="#4807EA" stroke="#4807EA" stroke-width="6.31125" stroke-miterlimit="10"/>
<path d="M954.819 163.671C956.074 162.626 957.897 162.626 959.152 163.671L986.697 186.599C988.324 187.953 988.324 190.452 986.697 191.806L976.427 200.352L964.875 209.969C963.619 211.014 961.796 211.014 960.541 209.969L956.986 207.01L932.996 187.041C931.369 185.687 931.369 183.188 932.996 181.834L943.588 173.019L954.819 163.671Z" fill="#4807EA" stroke="#4807EA" stroke-width="6.31125" stroke-miterlimit="10"/>
<path d="M1122.07 163.671C1123.32 162.626 1125.14 162.626 1126.4 163.671L1153.95 186.599C1155.57 187.953 1155.57 190.452 1153.95 191.806L1143.68 200.352L1132.12 209.969C1130.87 211.014 1129.04 211.014 1127.79 209.969L1124.23 207.01L1100.24 187.041C1098.62 185.687 1098.62 183.188 1100.24 181.834L1110.84 173.019L1122.07 163.671Z" fill="#1B1C1E" stroke="#4807EA" stroke-width="6.31125" stroke-miterlimit="10"/>
<path d="M1289.32 163.671C1290.57 162.626 1292.39 162.626 1293.65 163.671L1321.19 186.599C1322.82 187.953 1322.82 190.452 1321.19 191.806L1310.92 200.352L1299.37 209.969C1298.12 211.014 1296.29 211.014 1295.04 209.969L1291.48 207.01L1267.49 187.041C1265.87 185.687 1265.87 183.188 1267.49 181.834L1278.08 173.019L1289.32 163.671Z" fill="#38E0B7" stroke="#38E0B7" stroke-width="6.31125" stroke-miterlimit="10"/>
<path d="M1456.56 163.671C1457.82 162.626 1459.64 162.626 1460.9 163.671L1488.44 186.599C1490.07 187.953 1490.07 190.452 1488.44 191.806L1478.17 200.352L1466.62 209.969C1465.36 211.014 1463.54 211.014 1462.29 209.969L1458.73 207.01L1434.74 187.041C1433.11 185.687 1433.11 183.188 1434.74 181.834L1445.33 173.019L1456.56 163.671Z" fill="#1B1C1E" stroke="#4807EA" stroke-width="6.31125" stroke-miterlimit="10"/>
<path d="M1623.81 163.671C1625.07 162.626 1626.89 162.626 1628.15 163.671L1655.69 186.599C1657.32 187.953 1657.32 190.452 1655.69 191.806L1645.42 200.352L1633.87 209.969C1632.61 211.014 1630.79 211.014 1629.53 209.969L1625.98 207.01L1601.99 187.041C1600.36 185.687 1600.36 183.188 1601.99 181.834L1612.58 173.019L1623.81 163.671Z" fill="#1B1C1E" stroke="#4807EA" stroke-width="6.31125" stroke-miterlimit="10"/>
<path d="M1801.04 243.001C1802.95 241.406 1805.73 241.406 1807.65 243.001L1849.69 277.997C1852.18 280.064 1852.18 283.877 1849.69 285.944L1834.02 298.989L1816.38 313.667C1814.47 315.262 1811.69 315.262 1809.77 313.667L1804.34 309.15L1767.73 278.671C1765.24 276.604 1765.24 272.791 1767.73 270.724L1783.89 257.269L1801.04 243.001Z" fill="#DE4438"/>
<rect x="1242" y="92" width="104.8" height="38.4" rx="6.4" fill="#38E0B7"/>
<path d="M1251.29 112.845C1251.36 113.371 1251.5 113.764 1251.72 114.025C1252.11 114.499 1252.78 114.736 1253.72 114.736C1254.29 114.736 1254.75 114.673 1255.11 114.548C1255.78 114.309 1256.11 113.863 1256.11 113.212C1256.11 112.832 1255.95 112.538 1255.61 112.33C1255.28 112.126 1254.76 111.947 1254.04 111.791L1252.83 111.517C1251.63 111.246 1250.8 110.952 1250.34 110.634C1249.56 110.103 1249.18 109.272 1249.18 108.142C1249.18 107.111 1249.55 106.254 1250.3 105.572C1251.05 104.889 1252.15 104.548 1253.61 104.548C1254.82 104.548 1255.85 104.871 1256.71 105.517C1257.57 106.158 1258.02 107.09 1258.06 108.314H1255.75C1255.71 107.621 1255.4 107.129 1254.84 106.837C1254.47 106.645 1254 106.548 1253.44 106.548C1252.82 106.548 1252.33 106.673 1251.96 106.923C1251.59 107.173 1251.4 107.522 1251.4 107.97C1251.4 108.382 1251.59 108.689 1251.95 108.892C1252.18 109.028 1252.68 109.186 1253.45 109.369L1255.43 109.845C1256.3 110.054 1256.96 110.332 1257.4 110.681C1258.09 111.223 1258.43 112.007 1258.43 113.033C1258.43 114.085 1258.03 114.96 1257.22 115.658C1256.42 116.35 1255.29 116.697 1253.82 116.697C1252.32 116.697 1251.14 116.356 1250.28 115.673C1249.42 114.986 1248.99 114.043 1248.99 112.845H1251.29ZM1262.25 107.884V113.017C1262.25 113.501 1262.31 113.866 1262.43 114.111C1262.63 114.543 1263.03 114.759 1263.62 114.759C1264.38 114.759 1264.9 114.452 1265.18 113.837C1265.33 113.504 1265.4 113.064 1265.4 112.517V107.884H1267.66V116.4H1265.5V115.197C1265.48 115.223 1265.42 115.301 1265.34 115.431C1265.26 115.561 1265.16 115.676 1265.04 115.775C1264.69 116.087 1264.36 116.301 1264.03 116.416C1263.71 116.53 1263.33 116.587 1262.89 116.587C1261.63 116.587 1260.78 116.134 1260.34 115.228C1260.1 114.728 1259.97 113.991 1259.97 113.017V107.884H1262.25ZM1274.42 107.697C1275.54 107.697 1276.41 108.1 1277.04 108.908C1277.68 109.715 1278 110.757 1278 112.033C1278 113.356 1277.68 114.452 1277.06 115.322C1276.43 116.192 1275.56 116.626 1274.44 116.626C1273.74 116.626 1273.17 116.486 1272.75 116.205C1272.49 116.038 1272.22 115.746 1271.92 115.33V116.4H1269.74V104.9H1271.96V108.994C1272.24 108.598 1272.55 108.296 1272.89 108.087C1273.29 107.827 1273.8 107.697 1274.42 107.697ZM1273.85 114.791C1274.42 114.791 1274.87 114.559 1275.18 114.095C1275.5 113.632 1275.66 113.022 1275.66 112.267C1275.66 111.663 1275.58 111.163 1275.43 110.767C1275.13 110.017 1274.58 109.642 1273.79 109.642C1272.98 109.642 1272.42 110.009 1272.12 110.744C1271.97 111.134 1271.89 111.639 1271.89 112.259C1271.89 112.988 1272.05 113.593 1272.37 114.072C1272.69 114.551 1273.19 114.791 1273.85 114.791ZM1289.11 107.697C1289.49 107.697 1289.86 107.77 1290.22 107.916C1290.59 108.061 1290.92 108.317 1291.22 108.681C1291.46 108.978 1291.62 109.343 1291.7 109.775C1291.75 110.061 1291.78 110.481 1291.78 111.033L1291.76 116.4H1289.48V110.978C1289.48 110.655 1289.43 110.389 1289.33 110.181C1289.13 109.785 1288.76 109.587 1288.23 109.587C1287.62 109.587 1287.19 109.843 1286.96 110.353C1286.84 110.624 1286.78 110.949 1286.78 111.33V116.4H1284.54V111.33C1284.54 110.824 1284.48 110.457 1284.38 110.228C1284.19 109.817 1283.83 109.611 1283.28 109.611C1282.64 109.611 1282.22 109.817 1282 110.228C1281.88 110.462 1281.82 110.811 1281.82 111.275V116.4H1279.56V107.9H1281.72V109.142C1282 108.699 1282.26 108.384 1282.5 108.197C1282.94 107.863 1283.5 107.697 1284.18 107.697C1284.84 107.697 1285.36 107.84 1285.76 108.126C1286.09 108.392 1286.33 108.733 1286.5 109.15C1286.79 108.65 1287.15 108.283 1287.58 108.048C1288.04 107.814 1288.55 107.697 1289.11 107.697ZM1296.12 106.869H1293.86V104.814H1296.12V106.869ZM1293.86 107.884H1296.12V116.4H1293.86V107.884ZM1300.02 113.681C1300.07 114.077 1300.17 114.358 1300.33 114.525C1300.6 114.822 1301.11 114.97 1301.86 114.97C1302.29 114.97 1302.64 114.905 1302.9 114.775C1303.16 114.645 1303.29 114.449 1303.29 114.189C1303.29 113.939 1303.18 113.749 1302.97 113.619C1302.77 113.488 1301.99 113.264 1300.65 112.947C1299.69 112.707 1299.01 112.408 1298.61 112.048C1298.22 111.694 1298.02 111.184 1298.02 110.517C1298.02 109.731 1298.33 109.056 1298.94 108.494C1299.56 107.926 1300.43 107.642 1301.55 107.642C1302.61 107.642 1303.48 107.856 1304.15 108.283C1304.82 108.705 1305.2 109.436 1305.3 110.478H1303.08C1303.04 110.192 1302.96 109.965 1302.83 109.798C1302.59 109.496 1302.17 109.345 1301.58 109.345C1301.1 109.345 1300.75 109.421 1300.54 109.572C1300.34 109.723 1300.24 109.9 1300.24 110.103C1300.24 110.358 1300.35 110.543 1300.57 110.658C1300.79 110.778 1301.56 110.983 1302.89 111.275C1303.77 111.483 1304.44 111.798 1304.88 112.22C1305.32 112.647 1305.54 113.181 1305.54 113.822C1305.54 114.666 1305.22 115.356 1304.59 115.892C1303.97 116.423 1303 116.689 1301.68 116.689C1300.35 116.689 1299.36 116.408 1298.72 115.845C1298.08 115.278 1297.76 114.556 1297.76 113.681H1300.02ZM1308.93 113.681C1308.97 114.077 1309.08 114.358 1309.23 114.525C1309.51 114.822 1310.02 114.97 1310.76 114.97C1311.2 114.97 1311.55 114.905 1311.8 114.775C1312.06 114.645 1312.19 114.449 1312.19 114.189C1312.19 113.939 1312.09 113.749 1311.88 113.619C1311.67 113.488 1310.9 113.264 1309.56 112.947C1308.6 112.707 1307.92 112.408 1307.52 112.048C1307.12 111.694 1306.93 111.184 1306.93 110.517C1306.93 109.731 1307.23 109.056 1307.85 108.494C1308.47 107.926 1309.34 107.642 1310.46 107.642C1311.52 107.642 1312.39 107.856 1313.05 108.283C1313.72 108.705 1314.11 109.436 1314.21 110.478H1311.98C1311.95 110.192 1311.87 109.965 1311.74 109.798C1311.49 109.496 1311.08 109.345 1310.49 109.345C1310 109.345 1309.66 109.421 1309.45 109.572C1309.25 109.723 1309.15 109.9 1309.15 110.103C1309.15 110.358 1309.25 110.543 1309.47 110.658C1309.69 110.778 1310.47 110.983 1311.79 111.275C1312.68 111.483 1313.34 111.798 1313.79 112.22C1314.22 112.647 1314.44 113.181 1314.44 113.822C1314.44 114.666 1314.13 115.356 1313.5 115.892C1312.87 116.423 1311.9 116.689 1310.59 116.689C1309.25 116.689 1308.26 116.408 1307.62 115.845C1306.99 115.278 1306.67 114.556 1306.67 113.681H1308.93ZM1318.39 106.869H1316.13V104.814H1318.39V106.869ZM1316.13 107.884H1318.39V116.4H1316.13V107.884ZM1324.37 114.83C1325.02 114.83 1325.52 114.598 1325.87 114.134C1326.22 113.671 1326.4 113.012 1326.4 112.158C1326.4 111.304 1326.22 110.647 1325.87 110.189C1325.52 109.725 1325.02 109.494 1324.37 109.494C1323.72 109.494 1323.22 109.725 1322.86 110.189C1322.52 110.647 1322.34 111.304 1322.34 112.158C1322.34 113.012 1322.52 113.671 1322.86 114.134C1323.22 114.598 1323.72 114.83 1324.37 114.83ZM1328.73 112.158C1328.73 113.408 1328.37 114.478 1327.65 115.369C1326.93 116.254 1325.84 116.697 1324.38 116.697C1322.92 116.697 1321.83 116.254 1321.11 115.369C1320.39 114.478 1320.03 113.408 1320.03 112.158C1320.03 110.929 1320.39 109.863 1321.11 108.962C1321.83 108.061 1322.92 107.611 1324.38 107.611C1325.84 107.611 1326.93 108.061 1327.65 108.962C1328.37 109.863 1328.73 110.929 1328.73 112.158ZM1335.05 107.681C1335.93 107.681 1336.65 107.913 1337.21 108.376C1337.77 108.835 1338.05 109.598 1338.05 110.666V116.4H1335.77V111.22C1335.77 110.772 1335.71 110.429 1335.59 110.189C1335.37 109.751 1334.96 109.533 1334.34 109.533C1333.59 109.533 1333.07 109.853 1332.79 110.494C1332.64 110.832 1332.57 111.264 1332.57 111.791V116.4H1330.35V107.9H1332.5V109.142C1332.78 108.705 1333.05 108.389 1333.31 108.197C1333.77 107.853 1334.35 107.681 1335.05 107.681Z" fill="white"/>
<rect x="1410" y="92" width="104.8" height="38.4" rx="6.4" fill="#4807EA"/>
<path d="M1454.97 104.884V106.923H1451.52V116.4H1449.1V106.923H1445.64V104.884H1454.97ZM1458.21 106.869H1455.95V104.814H1458.21V106.869ZM1455.95 107.884H1458.21V116.4H1455.95V107.884ZM1459.5 109.548V107.962H1460.68V105.587H1462.89V107.962H1464.27V109.548H1462.89V114.048C1462.89 114.397 1462.93 114.616 1463.02 114.705C1463.11 114.788 1463.38 114.83 1463.83 114.83C1463.9 114.83 1463.97 114.83 1464.04 114.83C1464.12 114.824 1464.2 114.819 1464.27 114.814V116.478L1463.22 116.517C1462.16 116.554 1461.44 116.371 1461.06 115.97C1460.81 115.715 1460.68 115.322 1460.68 114.791V109.548H1459.5ZM1467.97 116.4H1465.75V104.884H1467.97V116.4ZM1473.51 109.494C1473 109.494 1472.6 109.655 1472.31 109.978C1472.03 110.301 1471.85 110.738 1471.78 111.291H1475.24C1475.2 110.702 1475.02 110.257 1474.7 109.955C1474.38 109.647 1473.99 109.494 1473.51 109.494ZM1473.51 107.658C1474.22 107.658 1474.86 107.791 1475.43 108.056C1475.99 108.322 1476.46 108.741 1476.83 109.314C1477.17 109.819 1477.38 110.405 1477.48 111.072C1477.54 111.462 1477.56 112.025 1477.55 112.759H1471.72C1471.75 113.613 1472.02 114.212 1472.53 114.556C1472.84 114.77 1473.21 114.876 1473.64 114.876C1474.1 114.876 1474.47 114.746 1474.75 114.486C1474.91 114.345 1475.05 114.15 1475.17 113.9H1477.44C1477.39 114.405 1477.12 114.918 1476.65 115.439C1475.92 116.267 1474.9 116.681 1473.59 116.681C1472.51 116.681 1471.55 116.332 1470.72 115.634C1469.9 114.936 1469.48 113.801 1469.48 112.228C1469.48 110.754 1469.85 109.624 1470.6 108.837C1471.35 108.051 1472.32 107.658 1473.51 107.658Z" fill="white"/>
<rect x="1577" y="92" width="104.8" height="38.4" rx="6.4" fill="#4807EA"/>
<path d="M1621.97 104.884V106.923H1618.52V116.4H1616.1V106.923H1612.64V104.884H1621.97ZM1625.21 106.869H1622.95V104.814H1625.21V106.869ZM1622.95 107.884H1625.21V116.4H1622.95V107.884ZM1626.5 109.548V107.962H1627.68V105.587H1629.89V107.962H1631.27V109.548H1629.89V114.048C1629.89 114.397 1629.93 114.616 1630.02 114.705C1630.11 114.788 1630.38 114.83 1630.83 114.83C1630.9 114.83 1630.97 114.83 1631.04 114.83C1631.12 114.824 1631.2 114.819 1631.27 114.814V116.478L1630.22 116.517C1629.16 116.554 1628.44 116.371 1628.06 115.97C1627.81 115.715 1627.68 115.322 1627.68 114.791V109.548H1626.5ZM1634.97 116.4H1632.75V104.884H1634.97V116.4ZM1640.51 109.494C1640 109.494 1639.6 109.655 1639.31 109.978C1639.03 110.301 1638.85 110.738 1638.78 111.291H1642.24C1642.2 110.702 1642.02 110.257 1641.7 109.955C1641.38 109.647 1640.99 109.494 1640.51 109.494ZM1640.51 107.658C1641.22 107.658 1641.86 107.791 1642.43 108.056C1642.99 108.322 1643.46 108.741 1643.83 109.314C1644.17 109.819 1644.38 110.405 1644.48 111.072C1644.54 111.462 1644.56 112.025 1644.55 112.759H1638.72C1638.75 113.613 1639.02 114.212 1639.53 114.556C1639.84 114.77 1640.21 114.876 1640.64 114.876C1641.1 114.876 1641.47 114.746 1641.75 114.486C1641.91 114.345 1642.05 114.15 1642.17 113.9H1644.44C1644.39 114.405 1644.12 114.918 1643.65 115.439C1642.92 116.267 1641.9 116.681 1640.59 116.681C1639.51 116.681 1638.55 116.332 1637.72 115.634C1636.9 114.936 1636.48 113.801 1636.48 112.228C1636.48 110.754 1636.85 109.624 1637.6 108.837C1638.35 108.051 1639.32 107.658 1640.51 107.658Z" fill="white"/>
<rect x="1075" y="92" width="104.8" height="38.4" rx="6.4" fill="#4807EA"/>
<path d="M1119.97 104.884V106.923H1116.52V116.4H1114.1V106.923H1110.64V104.884H1119.97ZM1123.21 106.869H1120.95V104.814H1123.21V106.869ZM1120.95 107.884H1123.21V116.4H1120.95V107.884ZM1124.5 109.548V107.962H1125.68V105.587H1127.89V107.962H1129.27V109.548H1127.89V114.048C1127.89 114.397 1127.93 114.616 1128.02 114.705C1128.11 114.788 1128.38 114.83 1128.83 114.83C1128.9 114.83 1128.97 114.83 1129.04 114.83C1129.12 114.824 1129.2 114.819 1129.27 114.814V116.478L1128.22 116.517C1127.16 116.554 1126.44 116.371 1126.06 115.97C1125.81 115.715 1125.68 115.322 1125.68 114.791V109.548H1124.5ZM1132.97 116.4H1130.75V104.884H1132.97V116.4ZM1138.51 109.494C1138 109.494 1137.6 109.655 1137.31 109.978C1137.03 110.301 1136.85 110.738 1136.78 111.291H1140.24C1140.2 110.702 1140.02 110.257 1139.7 109.955C1139.38 109.647 1138.99 109.494 1138.51 109.494ZM1138.51 107.658C1139.22 107.658 1139.86 107.791 1140.43 108.056C1140.99 108.322 1141.46 108.741 1141.83 109.314C1142.17 109.819 1142.38 110.405 1142.48 111.072C1142.54 111.462 1142.56 112.025 1142.55 112.759H1136.72C1136.75 113.613 1137.02 114.212 1137.53 114.556C1137.84 114.77 1138.21 114.876 1138.64 114.876C1139.1 114.876 1139.47 114.746 1139.75 114.486C1139.91 114.345 1140.05 114.15 1140.17 113.9H1142.44C1142.39 114.405 1142.12 114.918 1141.65 115.439C1140.92 116.267 1139.9 116.681 1138.59 116.681C1137.51 116.681 1136.55 116.332 1135.72 115.634C1134.9 114.936 1134.48 113.801 1134.48 112.228C1134.48 110.754 1134.85 109.624 1135.6 108.837C1136.35 108.051 1137.32 107.658 1138.51 107.658Z" fill="white"/>
<rect x="573" y="92" width="104.8" height="38.4" rx="6.4" fill="#232427"/>
<path d="M617.966 104.884V106.923H614.521V116.4H612.099V106.923H608.638V104.884H617.966ZM621.208 106.869H618.95V104.814H621.208V106.869ZM618.95 107.884H621.208V116.4H618.95V107.884ZM622.497 109.548V107.962H623.685V105.587H625.888V107.962H627.271V109.548H625.888V114.048C625.888 114.397 625.932 114.616 626.021 114.705C626.109 114.788 626.38 114.83 626.833 114.83C626.901 114.83 626.971 114.83 627.044 114.83C627.122 114.824 627.198 114.819 627.271 114.814V116.478L626.216 116.517C625.164 116.554 624.445 116.371 624.06 115.97C623.81 115.715 623.685 115.322 623.685 114.791V109.548H622.497ZM630.974 116.4H628.747V104.884H630.974V116.4ZM636.513 109.494C635.997 109.494 635.596 109.655 635.31 109.978C635.028 110.301 634.851 110.738 634.778 111.291H638.239C638.203 110.702 638.023 110.257 637.7 109.955C637.382 109.647 636.987 109.494 636.513 109.494ZM636.513 107.658C637.221 107.658 637.859 107.791 638.427 108.056C638.994 108.322 639.463 108.741 639.833 109.314C640.166 109.819 640.382 110.405 640.481 111.072C640.539 111.462 640.562 112.025 640.552 112.759H634.724C634.755 113.613 635.023 114.212 635.528 114.556C635.836 114.77 636.205 114.876 636.638 114.876C637.096 114.876 637.468 114.746 637.755 114.486C637.911 114.345 638.049 114.15 638.169 113.9H640.442C640.385 114.405 640.122 114.918 639.653 115.439C638.924 116.267 637.903 116.681 636.591 116.681C635.507 116.681 634.552 116.332 633.724 115.634C632.896 114.936 632.481 113.801 632.481 112.228C632.481 110.754 632.854 109.624 633.599 108.837C634.349 108.051 635.32 107.658 636.513 107.658Z" fill="white"/>
<rect x="406" y="92" width="104.8" height="38.4" rx="6.4" fill="#232427"/>
<path d="M450.966 104.884V106.923H447.521V116.4H445.099V106.923H441.638V104.884H450.966ZM454.208 106.869H451.95V104.814H454.208V106.869ZM451.95 107.884H454.208V116.4H451.95V107.884ZM455.497 109.548V107.962H456.685V105.587H458.888V107.962H460.271V109.548H458.888V114.048C458.888 114.397 458.932 114.616 459.021 114.705C459.109 114.788 459.38 114.83 459.833 114.83C459.901 114.83 459.971 114.83 460.044 114.83C460.122 114.824 460.198 114.819 460.271 114.814V116.478L459.216 116.517C458.164 116.554 457.445 116.371 457.06 115.97C456.81 115.715 456.685 115.322 456.685 114.791V109.548H455.497ZM463.974 116.4H461.747V104.884H463.974V116.4ZM469.513 109.494C468.997 109.494 468.596 109.655 468.31 109.978C468.028 110.301 467.851 110.738 467.778 111.291H471.239C471.203 110.702 471.023 110.257 470.7 109.955C470.382 109.647 469.987 109.494 469.513 109.494ZM469.513 107.658C470.221 107.658 470.859 107.791 471.427 108.056C471.994 108.322 472.463 108.741 472.833 109.314C473.166 109.819 473.382 110.405 473.481 111.072C473.539 111.462 473.562 112.025 473.552 112.759H467.724C467.755 113.613 468.023 114.212 468.528 114.556C468.836 114.77 469.205 114.876 469.638 114.876C470.096 114.876 470.468 114.746 470.755 114.486C470.911 114.345 471.049 114.15 471.169 113.9H473.442C473.385 114.405 473.122 114.918 472.653 115.439C471.924 116.267 470.903 116.681 469.591 116.681C468.507 116.681 467.552 116.332 466.724 115.634C465.896 114.936 465.481 113.801 465.481 112.228C465.481 110.754 465.854 109.624 466.599 108.837C467.349 108.051 468.32 107.658 469.513 107.658Z" fill="white"/>
<rect x="239" y="92" width="104.8" height="38.4" rx="6.4" fill="#232427"/>
<path d="M283.966 104.884V106.923H280.521V116.4H278.099V106.923H274.638V104.884H283.966ZM287.208 106.869H284.95V104.814H287.208V106.869ZM284.95 107.884H287.208V116.4H284.95V107.884ZM288.497 109.548V107.962H289.685V105.587H291.888V107.962H293.271V109.548H291.888V114.048C291.888 114.397 291.932 114.616 292.021 114.705C292.109 114.788 292.38 114.83 292.833 114.83C292.901 114.83 292.971 114.83 293.044 114.83C293.122 114.824 293.198 114.819 293.271 114.814V116.478L292.216 116.517C291.164 116.554 290.445 116.371 290.06 115.97C289.81 115.715 289.685 115.322 289.685 114.791V109.548H288.497ZM296.974 116.4H294.747V104.884H296.974V116.4ZM302.513 109.494C301.997 109.494 301.596 109.655 301.31 109.978C301.028 110.301 300.851 110.738 300.778 111.291H304.239C304.203 110.702 304.023 110.257 303.7 109.955C303.382 109.647 302.987 109.494 302.513 109.494ZM302.513 107.658C303.221 107.658 303.859 107.791 304.427 108.056C304.994 108.322 305.463 108.741 305.833 109.314C306.166 109.819 306.382 110.405 306.481 111.072C306.539 111.462 306.562 112.025 306.552 112.759H300.724C300.755 113.613 301.023 114.212 301.528 114.556C301.836 114.77 302.205 114.876 302.638 114.876C303.096 114.876 303.468 114.746 303.755 114.486C303.911 114.345 304.049 114.15 304.169 113.9H306.442C306.385 114.405 306.122 114.918 305.653 115.439C304.924 116.267 303.903 116.681 302.591 116.681C301.507 116.681 300.552 116.332 299.724 115.634C298.896 114.936 298.481 113.801 298.481 112.228C298.481 110.754 298.854 109.624 299.599 108.837C300.349 108.051 301.32 107.658 302.513 107.658Z" fill="white"/>
<rect x="72" y="92" width="104.8" height="38.4" rx="6.4" fill="#232427"/>
<path d="M116.966 104.884V106.923H113.521V116.4H111.099V106.923H107.638V104.884H116.966ZM120.208 106.869H117.95V104.814H120.208V106.869ZM117.95 107.884H120.208V116.4H117.95V107.884ZM121.497 109.548V107.962H122.685V105.587H124.888V107.962H126.271V109.548H124.888V114.048C124.888 114.397 124.932 114.616 125.021 114.705C125.109 114.788 125.38 114.83 125.833 114.83C125.901 114.83 125.971 114.83 126.044 114.83C126.122 114.824 126.198 114.819 126.271 114.814V116.478L125.216 116.517C124.164 116.554 123.445 116.371 123.06 115.97C122.81 115.715 122.685 115.322 122.685 114.791V109.548H121.497ZM129.974 116.4H127.747V104.884H129.974V116.4ZM135.513 109.494C134.997 109.494 134.596 109.655 134.31 109.978C134.028 110.301 133.851 110.738 133.778 111.291H137.239C137.203 110.702 137.023 110.257 136.7 109.955C136.382 109.647 135.987 109.494 135.513 109.494ZM135.513 107.658C136.221 107.658 136.859 107.791 137.427 108.056C137.994 108.322 138.463 108.741 138.833 109.314C139.166 109.819 139.382 110.405 139.481 111.072C139.539 111.462 139.562 112.025 139.552 112.759H133.724C133.755 113.613 134.023 114.212 134.528 114.556C134.836 114.77 135.205 114.876 135.638 114.876C136.096 114.876 136.468 114.746 136.755 114.486C136.911 114.345 137.049 114.15 137.169 113.9H139.442C139.385 114.405 139.122 114.918 138.653 115.439C137.924 116.267 136.903 116.681 135.591 116.681C134.507 116.681 133.552 116.332 132.724 115.634C131.896 114.936 131.481 113.801 131.481 112.228C131.481 110.754 131.854 109.624 132.599 108.837C133.349 108.051 134.32 107.658 135.513 107.658Z" fill="white"/>
<rect x="741" y="92" width="104.8" height="38.4" rx="6.4" fill="#232427"/>
<path d="M785.966 104.884V106.923H782.521V116.4H780.099V106.923H776.638V104.884H785.966ZM789.208 106.869H786.95V104.814H789.208V106.869ZM786.95 107.884H789.208V116.4H786.95V107.884ZM790.497 109.548V107.962H791.685V105.587H793.888V107.962H795.271V109.548H793.888V114.048C793.888 114.397 793.932 114.616 794.021 114.705C794.109 114.788 794.38 114.83 794.833 114.83C794.901 114.83 794.971 114.83 795.044 114.83C795.122 114.824 795.198 114.819 795.271 114.814V116.478L794.216 116.517C793.164 116.554 792.445 116.371 792.06 115.97C791.81 115.715 791.685 115.322 791.685 114.791V109.548H790.497ZM798.974 116.4H796.747V104.884H798.974V116.4ZM804.513 109.494C803.997 109.494 803.596 109.655 803.31 109.978C803.028 110.301 802.851 110.738 802.778 111.291H806.239C806.203 110.702 806.023 110.257 805.7 109.955C805.382 109.647 804.987 109.494 804.513 109.494ZM804.513 107.658C805.221 107.658 805.859 107.791 806.427 108.056C806.994 108.322 807.463 108.741 807.833 109.314C808.166 109.819 808.382 110.405 808.481 111.072C808.539 111.462 808.562 112.025 808.552 112.759H802.724C802.755 113.613 803.023 114.212 803.528 114.556C803.836 114.77 804.205 114.876 804.638 114.876C805.096 114.876 805.468 114.746 805.755 114.486C805.911 114.345 806.049 114.15 806.169 113.9H808.442C808.385 114.405 808.122 114.918 807.653 115.439C806.924 116.267 805.903 116.681 804.591 116.681C803.507 116.681 802.552 116.332 801.724 115.634C800.896 114.936 800.481 113.801 800.481 112.228C800.481 110.754 800.854 109.624 801.599 108.837C802.349 108.051 803.32 107.658 804.513 107.658Z" fill="white"/>
<rect x="1242" y="240" width="104.8" height="38.4" rx="6.4" fill="#232427"/>
<path d="M1274.33 256.587V255.072C1275.04 255.041 1275.53 254.994 1275.81 254.931C1276.26 254.832 1276.62 254.634 1276.9 254.337C1277.1 254.134 1277.24 253.863 1277.34 253.525C1277.4 253.322 1277.43 253.171 1277.43 253.072H1279.28V264.4H1277V256.587H1274.33ZM1282.63 264.4C1282.65 263.587 1282.83 262.845 1283.15 262.173C1283.47 261.418 1284.22 260.619 1285.4 259.775C1286.43 259.041 1287.09 258.514 1287.4 258.197C1287.86 257.702 1288.09 257.16 1288.09 256.572C1288.09 256.093 1287.96 255.694 1287.69 255.376C1287.43 255.059 1287.05 254.9 1286.55 254.9C1285.87 254.9 1285.41 255.153 1285.17 255.658C1285.03 255.949 1284.94 256.413 1284.92 257.048H1282.75C1282.79 256.085 1282.97 255.306 1283.28 254.712C1283.87 253.582 1284.93 253.017 1286.44 253.017C1287.64 253.017 1288.59 253.35 1289.3 254.017C1290.01 254.679 1290.36 255.556 1290.36 256.65C1290.36 257.488 1290.11 258.233 1289.61 258.884C1289.29 259.317 1288.75 259.798 1288 260.33L1287.11 260.962C1286.55 261.358 1286.17 261.645 1285.96 261.822C1285.75 261.999 1285.58 262.205 1285.44 262.439H1290.39V264.4H1282.63ZM1292.85 256.22H1295.22V258.548H1292.85V256.22ZM1292.85 262.072H1295.22V264.4H1292.85V262.072ZM1299.14 258.845C1299.14 260.147 1299.24 261.145 1299.46 261.837C1299.67 262.525 1300.11 262.869 1300.77 262.869C1301.43 262.869 1301.86 262.525 1302.07 261.837C1302.28 261.145 1302.38 260.147 1302.38 258.845C1302.38 257.481 1302.28 256.47 1302.07 255.814C1301.86 255.158 1301.43 254.83 1300.77 254.83C1300.11 254.83 1299.67 255.158 1299.46 255.814C1299.24 256.47 1299.14 257.481 1299.14 258.845ZM1300.77 252.994C1302.21 252.994 1303.22 253.501 1303.8 254.517C1304.39 255.533 1304.68 256.975 1304.68 258.845C1304.68 260.715 1304.39 262.155 1303.8 263.166C1303.22 264.176 1302.21 264.681 1300.77 264.681C1299.33 264.681 1298.31 264.176 1297.73 263.166C1297.15 262.155 1296.86 260.715 1296.86 258.845C1296.86 256.975 1297.15 255.533 1297.73 254.517C1298.31 253.501 1299.33 252.994 1300.77 252.994ZM1308.04 258.845C1308.04 260.147 1308.15 261.145 1308.36 261.837C1308.58 262.525 1309.02 262.869 1309.68 262.869C1310.34 262.869 1310.77 262.525 1310.97 261.837C1311.18 261.145 1311.29 260.147 1311.29 258.845C1311.29 257.481 1311.18 256.47 1310.97 255.814C1310.77 255.158 1310.34 254.83 1309.68 254.83C1309.02 254.83 1308.58 255.158 1308.36 255.814C1308.15 256.47 1308.04 257.481 1308.04 258.845ZM1309.68 252.994C1311.12 252.994 1312.13 253.501 1312.71 254.517C1313.29 255.533 1313.58 256.975 1313.58 258.845C1313.58 260.715 1313.29 262.155 1312.71 263.166C1312.13 264.176 1311.12 264.681 1309.68 264.681C1308.23 264.681 1307.22 264.176 1306.64 263.166C1306.06 262.155 1305.77 260.715 1305.77 258.845C1305.77 256.975 1306.06 255.533 1306.64 254.517C1307.22 253.501 1308.23 252.994 1309.68 252.994Z" fill="white"/>
<rect x="1410" y="240" width="104.8" height="38.4" rx="6.4" fill="#232427"/>
<path d="M1442.33 256.587V255.072C1443.04 255.041 1443.53 254.994 1443.81 254.931C1444.26 254.832 1444.62 254.634 1444.9 254.337C1445.1 254.134 1445.24 253.863 1445.34 253.525C1445.4 253.322 1445.43 253.171 1445.43 253.072H1447.28V264.4H1445V256.587H1442.33ZM1452.74 260.923C1452.74 261.376 1452.81 261.751 1452.96 262.048C1453.23 262.595 1453.72 262.869 1454.43 262.869C1454.87 262.869 1455.25 262.72 1455.58 262.423C1455.9 262.121 1456.07 261.689 1456.07 261.126C1456.07 260.382 1455.77 259.884 1455.16 259.634C1454.82 259.494 1454.28 259.423 1453.54 259.423V257.83C1454.26 257.819 1454.77 257.749 1455.05 257.619C1455.55 257.4 1455.79 256.957 1455.79 256.291C1455.79 255.858 1455.67 255.507 1455.41 255.236C1455.16 254.965 1454.81 254.83 1454.35 254.83C1453.82 254.83 1453.43 254.996 1453.18 255.33C1452.94 255.663 1452.82 256.108 1452.83 256.666H1450.75C1450.78 256.103 1450.87 255.569 1451.04 255.064C1451.23 254.621 1451.51 254.212 1451.9 253.837C1452.19 253.572 1452.54 253.369 1452.94 253.228C1453.34 253.087 1453.84 253.017 1454.42 253.017C1455.5 253.017 1456.37 253.298 1457.04 253.861C1457.7 254.418 1458.04 255.168 1458.04 256.111C1458.04 256.778 1457.84 257.34 1457.44 257.798C1457.19 258.085 1456.93 258.28 1456.66 258.384C1456.86 258.384 1457.16 258.559 1457.54 258.908C1458.1 259.434 1458.39 260.153 1458.39 261.064C1458.39 262.022 1458.05 262.866 1457.39 263.595C1456.73 264.319 1455.74 264.681 1454.44 264.681C1452.84 264.681 1451.72 264.158 1451.1 263.111C1450.77 262.554 1450.59 261.824 1450.55 260.923H1452.74ZM1460.85 256.22H1463.22V258.548H1460.85V256.22ZM1460.85 262.072H1463.22V264.4H1460.85V262.072ZM1467.14 258.845C1467.14 260.147 1467.24 261.145 1467.46 261.837C1467.67 262.525 1468.11 262.869 1468.77 262.869C1469.43 262.869 1469.86 262.525 1470.07 261.837C1470.28 261.145 1470.38 260.147 1470.38 258.845C1470.38 257.481 1470.28 256.47 1470.07 255.814C1469.86 255.158 1469.43 254.83 1468.77 254.83C1468.11 254.83 1467.67 255.158 1467.46 255.814C1467.24 256.47 1467.14 257.481 1467.14 258.845ZM1468.77 252.994C1470.21 252.994 1471.22 253.501 1471.8 254.517C1472.39 255.533 1472.68 256.975 1472.68 258.845C1472.68 260.715 1472.39 262.155 1471.8 263.166C1471.22 264.176 1470.21 264.681 1468.77 264.681C1467.33 264.681 1466.31 264.176 1465.73 263.166C1465.15 262.155 1464.86 260.715 1464.86 258.845C1464.86 256.975 1465.15 255.533 1465.73 254.517C1466.31 253.501 1467.33 252.994 1468.77 252.994ZM1476.04 258.845C1476.04 260.147 1476.15 261.145 1476.36 261.837C1476.58 262.525 1477.02 262.869 1477.68 262.869C1478.34 262.869 1478.77 262.525 1478.97 261.837C1479.18 261.145 1479.29 260.147 1479.29 258.845C1479.29 257.481 1479.18 256.47 1478.97 255.814C1478.77 255.158 1478.34 254.83 1477.68 254.83C1477.02 254.83 1476.58 255.158 1476.36 255.814C1476.15 256.47 1476.04 257.481 1476.04 258.845ZM1477.68 252.994C1479.12 252.994 1480.13 253.501 1480.71 254.517C1481.29 255.533 1481.58 256.975 1481.58 258.845C1481.58 260.715 1481.29 262.155 1480.71 263.166C1480.13 264.176 1479.12 264.681 1477.68 264.681C1476.23 264.681 1475.22 264.176 1474.64 263.166C1474.06 262.155 1473.77 260.715 1473.77 258.845C1473.77 256.975 1474.06 255.533 1474.64 254.517C1475.22 253.501 1476.23 252.994 1477.68 252.994Z" fill="white"/>
<rect x="1577" y="240" width="104.8" height="38.4" rx="6.4" fill="#232427"/>
<path d="M1609.33 256.587V255.072C1610.04 255.041 1610.53 254.994 1610.81 254.931C1611.26 254.832 1611.62 254.634 1611.9 254.337C1612.1 254.134 1612.24 253.863 1612.34 253.525C1612.4 253.322 1612.43 253.171 1612.43 253.072H1614.28V264.4H1612V256.587H1609.33ZM1619.86 260.814C1619.86 261.423 1620.03 261.921 1620.36 262.306C1620.68 262.692 1621.1 262.884 1621.61 262.884C1622.1 262.884 1622.49 262.699 1622.77 262.33C1623.06 261.955 1623.2 261.47 1623.2 260.876C1623.2 260.215 1623.04 259.71 1622.72 259.361C1622.39 259.007 1622 258.83 1621.53 258.83C1621.15 258.83 1620.81 258.944 1620.52 259.173C1620.08 259.512 1619.86 260.059 1619.86 260.814ZM1623 255.923C1623 255.741 1622.93 255.541 1622.79 255.322C1622.55 254.968 1622.18 254.791 1621.7 254.791C1620.98 254.791 1620.46 255.197 1620.15 256.009C1619.99 256.457 1619.87 257.119 1619.81 257.994C1620.09 257.666 1620.41 257.426 1620.77 257.275C1621.14 257.124 1621.55 257.048 1622.02 257.048C1623.03 257.048 1623.85 257.389 1624.49 258.072C1625.14 258.754 1625.46 259.626 1625.46 260.689C1625.46 261.746 1625.14 262.679 1624.51 263.486C1623.88 264.293 1622.9 264.697 1621.58 264.697C1620.15 264.697 1619.1 264.1 1618.42 262.908C1617.89 261.975 1617.63 260.772 1617.63 259.298C1617.63 258.434 1617.67 257.731 1617.74 257.189C1617.87 256.225 1618.12 255.423 1618.5 254.783C1618.82 254.236 1619.24 253.796 1619.76 253.462C1620.29 253.129 1620.92 252.962 1621.65 252.962C1622.7 252.962 1623.54 253.233 1624.16 253.775C1624.79 254.311 1625.14 255.028 1625.22 255.923H1623ZM1627.85 256.22H1630.22V258.548H1627.85V256.22ZM1627.85 262.072H1630.22V264.4H1627.85V262.072ZM1634.14 258.845C1634.14 260.147 1634.24 261.145 1634.46 261.837C1634.67 262.525 1635.11 262.869 1635.77 262.869C1636.43 262.869 1636.86 262.525 1637.07 261.837C1637.28 261.145 1637.38 260.147 1637.38 258.845C1637.38 257.481 1637.28 256.47 1637.07 255.814C1636.86 255.158 1636.43 254.83 1635.77 254.83C1635.11 254.83 1634.67 255.158 1634.46 255.814C1634.24 256.47 1634.14 257.481 1634.14 258.845ZM1635.77 252.994C1637.21 252.994 1638.22 253.501 1638.8 254.517C1639.39 255.533 1639.68 256.975 1639.68 258.845C1639.68 260.715 1639.39 262.155 1638.8 263.166C1638.22 264.176 1637.21 264.681 1635.77 264.681C1634.33 264.681 1633.31 264.176 1632.73 263.166C1632.15 262.155 1631.86 260.715 1631.86 258.845C1631.86 256.975 1632.15 255.533 1632.73 254.517C1633.31 253.501 1634.33 252.994 1635.77 252.994ZM1643.04 258.845C1643.04 260.147 1643.15 261.145 1643.36 261.837C1643.58 262.525 1644.02 262.869 1644.68 262.869C1645.34 262.869 1645.77 262.525 1645.97 261.837C1646.18 261.145 1646.29 260.147 1646.29 258.845C1646.29 257.481 1646.18 256.47 1645.97 255.814C1645.77 255.158 1645.34 254.83 1644.68 254.83C1644.02 254.83 1643.58 255.158 1643.36 255.814C1643.15 256.47 1643.04 257.481 1643.04 258.845ZM1644.68 252.994C1646.12 252.994 1647.13 253.501 1647.71 254.517C1648.29 255.533 1648.58 256.975 1648.58 258.845C1648.58 260.715 1648.29 262.155 1647.71 263.166C1647.13 264.176 1646.12 264.681 1644.68 264.681C1643.23 264.681 1642.22 264.176 1641.64 263.166C1641.06 262.155 1640.77 260.715 1640.77 258.845C1640.77 256.975 1641.06 255.533 1641.64 254.517C1642.22 253.501 1643.23 252.994 1644.68 252.994Z" fill="white"/>
<rect x="1075" y="240" width="104.8" height="38.4" rx="6.4" fill="#232427"/>
<path d="M1107.33 256.587V255.072C1108.04 255.041 1108.53 254.994 1108.81 254.931C1109.26 254.832 1109.62 254.634 1109.9 254.337C1110.1 254.134 1110.24 253.863 1110.34 253.525C1110.4 253.322 1110.43 253.171 1110.43 253.072H1112.28V264.4H1110V256.587H1107.33ZM1117.86 260.814C1117.86 261.423 1118.03 261.921 1118.36 262.306C1118.68 262.692 1119.1 262.884 1119.61 262.884C1120.1 262.884 1120.49 262.699 1120.77 262.33C1121.06 261.955 1121.2 261.47 1121.2 260.876C1121.2 260.215 1121.04 259.71 1120.72 259.361C1120.39 259.007 1120 258.83 1119.53 258.83C1119.15 258.83 1118.81 258.944 1118.52 259.173C1118.08 259.512 1117.86 260.059 1117.86 260.814ZM1121 255.923C1121 255.741 1120.93 255.541 1120.79 255.322C1120.55 254.968 1120.18 254.791 1119.7 254.791C1118.98 254.791 1118.46 255.197 1118.15 256.009C1117.99 256.457 1117.87 257.119 1117.81 257.994C1118.09 257.666 1118.41 257.426 1118.77 257.275C1119.14 257.124 1119.55 257.048 1120.02 257.048C1121.03 257.048 1121.85 257.389 1122.49 258.072C1123.14 258.754 1123.46 259.626 1123.46 260.689C1123.46 261.746 1123.14 262.679 1122.51 263.486C1121.88 264.293 1120.9 264.697 1119.58 264.697C1118.15 264.697 1117.1 264.1 1116.42 262.908C1115.89 261.975 1115.63 260.772 1115.63 259.298C1115.63 258.434 1115.67 257.731 1115.74 257.189C1115.87 256.225 1116.12 255.423 1116.5 254.783C1116.82 254.236 1117.24 253.796 1117.76 253.462C1118.29 253.129 1118.92 252.962 1119.65 252.962C1120.7 252.962 1121.54 253.233 1122.16 253.775C1122.79 254.311 1123.14 255.028 1123.22 255.923H1121ZM1125.85 256.22H1128.22V258.548H1125.85V256.22ZM1125.85 262.072H1128.22V264.4H1125.85V262.072ZM1132.14 258.845C1132.14 260.147 1132.24 261.145 1132.46 261.837C1132.67 262.525 1133.11 262.869 1133.77 262.869C1134.43 262.869 1134.86 262.525 1135.07 261.837C1135.28 261.145 1135.38 260.147 1135.38 258.845C1135.38 257.481 1135.28 256.47 1135.07 255.814C1134.86 255.158 1134.43 254.83 1133.77 254.83C1133.11 254.83 1132.67 255.158 1132.46 255.814C1132.24 256.47 1132.14 257.481 1132.14 258.845ZM1133.77 252.994C1135.21 252.994 1136.22 253.501 1136.8 254.517C1137.39 255.533 1137.68 256.975 1137.68 258.845C1137.68 260.715 1137.39 262.155 1136.8 263.166C1136.22 264.176 1135.21 264.681 1133.77 264.681C1132.33 264.681 1131.31 264.176 1130.73 263.166C1130.15 262.155 1129.86 260.715 1129.86 258.845C1129.86 256.975 1130.15 255.533 1130.73 254.517C1131.31 253.501 1132.33 252.994 1133.77 252.994ZM1141.04 258.845C1141.04 260.147 1141.15 261.145 1141.36 261.837C1141.58 262.525 1142.02 262.869 1142.68 262.869C1143.34 262.869 1143.77 262.525 1143.97 261.837C1144.18 261.145 1144.29 260.147 1144.29 258.845C1144.29 257.481 1144.18 256.47 1143.97 255.814C1143.77 255.158 1143.34 254.83 1142.68 254.83C1142.02 254.83 1141.58 255.158 1141.36 255.814C1141.15 256.47 1141.04 257.481 1141.04 258.845ZM1142.68 252.994C1144.12 252.994 1145.13 253.501 1145.71 254.517C1146.29 255.533 1146.58 256.975 1146.58 258.845C1146.58 260.715 1146.29 262.155 1145.71 263.166C1145.13 264.176 1144.12 264.681 1142.68 264.681C1141.23 264.681 1140.22 264.176 1139.64 263.166C1139.06 262.155 1138.77 260.715 1138.77 258.845C1138.77 256.975 1139.06 255.533 1139.64 254.517C1140.22 253.501 1141.23 252.994 1142.68 252.994Z" fill="white"/>
<rect x="573" y="240" width="104.8" height="38.4" rx="6.4" fill="#232427"/>
<path d="M606.997 258.845C606.997 260.147 607.104 261.145 607.317 261.837C607.531 262.525 607.968 262.869 608.63 262.869C609.291 262.869 609.724 262.525 609.927 261.837C610.135 261.145 610.239 260.147 610.239 258.845C610.239 257.481 610.135 256.47 609.927 255.814C609.724 255.158 609.291 254.83 608.63 254.83C607.968 254.83 607.531 255.158 607.317 255.814C607.104 256.47 606.997 257.481 606.997 258.845ZM608.63 252.994C610.073 252.994 611.083 253.501 611.661 254.517C612.244 255.533 612.536 256.975 612.536 258.845C612.536 260.715 612.244 262.155 611.661 263.166C611.083 264.176 610.073 264.681 608.63 264.681C607.187 264.681 606.174 264.176 605.591 263.166C605.013 262.155 604.724 260.715 604.724 258.845C604.724 256.975 605.013 255.533 605.591 254.517C606.174 253.501 607.187 252.994 608.63 252.994ZM615.864 261.111C615.864 261.668 616.007 262.1 616.294 262.408C616.586 262.715 616.987 262.869 617.497 262.869C618.007 262.869 618.406 262.715 618.692 262.408C618.984 262.1 619.13 261.668 619.13 261.111C619.13 260.533 618.981 260.095 618.685 259.798C618.393 259.496 617.997 259.345 617.497 259.345C616.997 259.345 616.599 259.496 616.302 259.798C616.01 260.095 615.864 260.533 615.864 261.111ZM613.552 261.259C613.552 260.624 613.695 260.048 613.981 259.533C614.273 259.017 614.698 258.629 615.255 258.369C614.708 258.004 614.351 257.611 614.185 257.189C614.023 256.762 613.942 256.363 613.942 255.994C613.942 255.171 614.252 254.47 614.872 253.892C615.492 253.309 616.367 253.017 617.497 253.017C618.627 253.017 619.502 253.309 620.122 253.892C620.742 254.47 621.052 255.171 621.052 255.994C621.052 256.363 620.968 256.762 620.802 257.189C620.64 257.611 620.286 257.978 619.739 258.291C620.297 258.603 620.716 259.017 620.997 259.533C621.278 260.048 621.419 260.624 621.419 261.259C621.419 262.212 621.065 263.025 620.356 263.697C619.653 264.363 618.669 264.697 617.403 264.697C616.138 264.697 615.179 264.363 614.528 263.697C613.877 263.025 613.552 262.212 613.552 261.259ZM616.067 256.244C616.067 256.655 616.192 256.991 616.442 257.251C616.698 257.512 617.049 257.642 617.497 257.642C617.95 257.642 618.299 257.512 618.544 257.251C618.794 256.991 618.919 256.655 618.919 256.244C618.919 255.796 618.794 255.447 618.544 255.197C618.299 254.942 617.95 254.814 617.497 254.814C617.049 254.814 616.698 254.942 616.442 255.197C616.192 255.447 616.067 255.796 616.067 256.244ZM623.849 256.22H626.216V258.548H623.849V256.22ZM623.849 262.072H626.216V264.4H623.849V262.072ZM630.138 258.845C630.138 260.147 630.244 261.145 630.458 261.837C630.672 262.525 631.109 262.869 631.771 262.869C632.432 262.869 632.864 262.525 633.067 261.837C633.276 261.145 633.38 260.147 633.38 258.845C633.38 257.481 633.276 256.47 633.067 255.814C632.864 255.158 632.432 254.83 631.771 254.83C631.109 254.83 630.672 255.158 630.458 255.814C630.244 256.47 630.138 257.481 630.138 258.845ZM631.771 252.994C633.213 252.994 634.224 253.501 634.802 254.517C635.385 255.533 635.677 256.975 635.677 258.845C635.677 260.715 635.385 262.155 634.802 263.166C634.224 264.176 633.213 264.681 631.771 264.681C630.328 264.681 629.315 264.176 628.731 263.166C628.153 262.155 627.864 260.715 627.864 258.845C627.864 256.975 628.153 255.533 628.731 254.517C629.315 253.501 630.328 252.994 631.771 252.994ZM639.044 258.845C639.044 260.147 639.151 261.145 639.364 261.837C639.578 262.525 640.015 262.869 640.677 262.869C641.338 262.869 641.771 262.525 641.974 261.837C642.182 261.145 642.286 260.147 642.286 258.845C642.286 257.481 642.182 256.47 641.974 255.814C641.771 255.158 641.338 254.83 640.677 254.83C640.015 254.83 639.578 255.158 639.364 255.814C639.151 256.47 639.044 257.481 639.044 258.845ZM640.677 252.994C642.119 252.994 643.13 253.501 643.708 254.517C644.291 255.533 644.583 256.975 644.583 258.845C644.583 260.715 644.291 262.155 643.708 263.166C643.13 264.176 642.119 264.681 640.677 264.681C639.234 264.681 638.221 264.176 637.638 263.166C637.06 262.155 636.771 260.715 636.771 258.845C636.771 256.975 637.06 255.533 637.638 254.517C638.221 253.501 639.234 252.994 640.677 252.994Z" fill="white"/>
<rect x="406" y="240" width="104.8" height="38.4" rx="6.4" fill="#232427"/>
<path d="M439.997 258.845C439.997 260.147 440.104 261.145 440.317 261.837C440.531 262.525 440.968 262.869 441.63 262.869C442.291 262.869 442.724 262.525 442.927 261.837C443.135 261.145 443.239 260.147 443.239 258.845C443.239 257.481 443.135 256.47 442.927 255.814C442.724 255.158 442.291 254.83 441.63 254.83C440.968 254.83 440.531 255.158 440.317 255.814C440.104 256.47 439.997 257.481 439.997 258.845ZM441.63 252.994C443.073 252.994 444.083 253.501 444.661 254.517C445.244 255.533 445.536 256.975 445.536 258.845C445.536 260.715 445.244 262.155 444.661 263.166C444.083 264.176 443.073 264.681 441.63 264.681C440.187 264.681 439.174 264.176 438.591 263.166C438.013 262.155 437.724 260.715 437.724 258.845C437.724 256.975 438.013 255.533 438.591 254.517C439.174 253.501 440.187 252.994 441.63 252.994ZM448.864 261.111C448.864 261.668 449.007 262.1 449.294 262.408C449.586 262.715 449.987 262.869 450.497 262.869C451.007 262.869 451.406 262.715 451.692 262.408C451.984 262.1 452.13 261.668 452.13 261.111C452.13 260.533 451.981 260.095 451.685 259.798C451.393 259.496 450.997 259.345 450.497 259.345C449.997 259.345 449.599 259.496 449.302 259.798C449.01 260.095 448.864 260.533 448.864 261.111ZM446.552 261.259C446.552 260.624 446.695 260.048 446.981 259.533C447.273 259.017 447.698 258.629 448.255 258.369C447.708 258.004 447.351 257.611 447.185 257.189C447.023 256.762 446.942 256.363 446.942 255.994C446.942 255.171 447.252 254.47 447.872 253.892C448.492 253.309 449.367 253.017 450.497 253.017C451.627 253.017 452.502 253.309 453.122 253.892C453.742 254.47 454.052 255.171 454.052 255.994C454.052 256.363 453.968 256.762 453.802 257.189C453.64 257.611 453.286 257.978 452.739 258.291C453.297 258.603 453.716 259.017 453.997 259.533C454.278 260.048 454.419 260.624 454.419 261.259C454.419 262.212 454.065 263.025 453.356 263.697C452.653 264.363 451.669 264.697 450.403 264.697C449.138 264.697 448.179 264.363 447.528 263.697C446.877 263.025 446.552 262.212 446.552 261.259ZM449.067 256.244C449.067 256.655 449.192 256.991 449.442 257.251C449.698 257.512 450.049 257.642 450.497 257.642C450.95 257.642 451.299 257.512 451.544 257.251C451.794 256.991 451.919 256.655 451.919 256.244C451.919 255.796 451.794 255.447 451.544 255.197C451.299 254.942 450.95 254.814 450.497 254.814C450.049 254.814 449.698 254.942 449.442 255.197C449.192 255.447 449.067 255.796 449.067 256.244ZM456.849 256.22H459.216V258.548H456.849V256.22ZM456.849 262.072H459.216V264.4H456.849V262.072ZM463.138 258.845C463.138 260.147 463.244 261.145 463.458 261.837C463.672 262.525 464.109 262.869 464.771 262.869C465.432 262.869 465.864 262.525 466.067 261.837C466.276 261.145 466.38 260.147 466.38 258.845C466.38 257.481 466.276 256.47 466.067 255.814C465.864 255.158 465.432 254.83 464.771 254.83C464.109 254.83 463.672 255.158 463.458 255.814C463.244 256.47 463.138 257.481 463.138 258.845ZM464.771 252.994C466.213 252.994 467.224 253.501 467.802 254.517C468.385 255.533 468.677 256.975 468.677 258.845C468.677 260.715 468.385 262.155 467.802 263.166C467.224 264.176 466.213 264.681 464.771 264.681C463.328 264.681 462.315 264.176 461.731 263.166C461.153 262.155 460.864 260.715 460.864 258.845C460.864 256.975 461.153 255.533 461.731 254.517C462.315 253.501 463.328 252.994 464.771 252.994ZM472.044 258.845C472.044 260.147 472.151 261.145 472.364 261.837C472.578 262.525 473.015 262.869 473.677 262.869C474.338 262.869 474.771 262.525 474.974 261.837C475.182 261.145 475.286 260.147 475.286 258.845C475.286 257.481 475.182 256.47 474.974 255.814C474.771 255.158 474.338 254.83 473.677 254.83C473.015 254.83 472.578 255.158 472.364 255.814C472.151 256.47 472.044 257.481 472.044 258.845ZM473.677 252.994C475.119 252.994 476.13 253.501 476.708 254.517C477.291 255.533 477.583 256.975 477.583 258.845C477.583 260.715 477.291 262.155 476.708 263.166C476.13 264.176 475.119 264.681 473.677 264.681C472.234 264.681 471.221 264.176 470.638 263.166C470.06 262.155 469.771 260.715 469.771 258.845C469.771 256.975 470.06 255.533 470.638 254.517C471.221 253.501 472.234 252.994 473.677 252.994Z" fill="white"/>
<rect x="239" y="240" width="104.8" height="38.4" rx="6.4" fill="#232427"/>
<path d="M272.997 258.845C272.997 260.147 273.104 261.145 273.317 261.837C273.531 262.525 273.968 262.869 274.63 262.869C275.291 262.869 275.724 262.525 275.927 261.837C276.135 261.145 276.239 260.147 276.239 258.845C276.239 257.481 276.135 256.47 275.927 255.814C275.724 255.158 275.291 254.83 274.63 254.83C273.968 254.83 273.531 255.158 273.317 255.814C273.104 256.47 272.997 257.481 272.997 258.845ZM274.63 252.994C276.073 252.994 277.083 253.501 277.661 254.517C278.244 255.533 278.536 256.975 278.536 258.845C278.536 260.715 278.244 262.155 277.661 263.166C277.083 264.176 276.073 264.681 274.63 264.681C273.187 264.681 272.174 264.176 271.591 263.166C271.013 262.155 270.724 260.715 270.724 258.845C270.724 256.975 271.013 255.533 271.591 254.517C272.174 253.501 273.187 252.994 274.63 252.994ZM281.864 261.111C281.864 261.668 282.007 262.1 282.294 262.408C282.586 262.715 282.987 262.869 283.497 262.869C284.007 262.869 284.406 262.715 284.692 262.408C284.984 262.1 285.13 261.668 285.13 261.111C285.13 260.533 284.981 260.095 284.685 259.798C284.393 259.496 283.997 259.345 283.497 259.345C282.997 259.345 282.599 259.496 282.302 259.798C282.01 260.095 281.864 260.533 281.864 261.111ZM279.552 261.259C279.552 260.624 279.695 260.048 279.981 259.533C280.273 259.017 280.698 258.629 281.255 258.369C280.708 258.004 280.351 257.611 280.185 257.189C280.023 256.762 279.942 256.363 279.942 255.994C279.942 255.171 280.252 254.47 280.872 253.892C281.492 253.309 282.367 253.017 283.497 253.017C284.627 253.017 285.502 253.309 286.122 253.892C286.742 254.47 287.052 255.171 287.052 255.994C287.052 256.363 286.968 256.762 286.802 257.189C286.64 257.611 286.286 257.978 285.739 258.291C286.297 258.603 286.716 259.017 286.997 259.533C287.278 260.048 287.419 260.624 287.419 261.259C287.419 262.212 287.065 263.025 286.356 263.697C285.653 264.363 284.669 264.697 283.403 264.697C282.138 264.697 281.179 264.363 280.528 263.697C279.877 263.025 279.552 262.212 279.552 261.259ZM282.067 256.244C282.067 256.655 282.192 256.991 282.442 257.251C282.698 257.512 283.049 257.642 283.497 257.642C283.95 257.642 284.299 257.512 284.544 257.251C284.794 256.991 284.919 256.655 284.919 256.244C284.919 255.796 284.794 255.447 284.544 255.197C284.299 254.942 283.95 254.814 283.497 254.814C283.049 254.814 282.698 254.942 282.442 255.197C282.192 255.447 282.067 255.796 282.067 256.244ZM289.849 256.22H292.216V258.548H289.849V256.22ZM289.849 262.072H292.216V264.4H289.849V262.072ZM296.138 258.845C296.138 260.147 296.244 261.145 296.458 261.837C296.672 262.525 297.109 262.869 297.771 262.869C298.432 262.869 298.864 262.525 299.067 261.837C299.276 261.145 299.38 260.147 299.38 258.845C299.38 257.481 299.276 256.47 299.067 255.814C298.864 255.158 298.432 254.83 297.771 254.83C297.109 254.83 296.672 255.158 296.458 255.814C296.244 256.47 296.138 257.481 296.138 258.845ZM297.771 252.994C299.213 252.994 300.224 253.501 300.802 254.517C301.385 255.533 301.677 256.975 301.677 258.845C301.677 260.715 301.385 262.155 300.802 263.166C300.224 264.176 299.213 264.681 297.771 264.681C296.328 264.681 295.315 264.176 294.731 263.166C294.153 262.155 293.864 260.715 293.864 258.845C293.864 256.975 294.153 255.533 294.731 254.517C295.315 253.501 296.328 252.994 297.771 252.994ZM305.044 258.845C305.044 260.147 305.151 261.145 305.364 261.837C305.578 262.525 306.015 262.869 306.677 262.869C307.338 262.869 307.771 262.525 307.974 261.837C308.182 261.145 308.286 260.147 308.286 258.845C308.286 257.481 308.182 256.47 307.974 255.814C307.771 255.158 307.338 254.83 306.677 254.83C306.015 254.83 305.578 255.158 305.364 255.814C305.151 256.47 305.044 257.481 305.044 258.845ZM306.677 252.994C308.119 252.994 309.13 253.501 309.708 254.517C310.291 255.533 310.583 256.975 310.583 258.845C310.583 260.715 310.291 262.155 309.708 263.166C309.13 264.176 308.119 264.681 306.677 264.681C305.234 264.681 304.221 264.176 303.638 263.166C303.06 262.155 302.771 260.715 302.771 258.845C302.771 256.975 303.06 255.533 303.638 254.517C304.221 253.501 305.234 252.994 306.677 252.994Z" fill="white"/>
<rect x="72" y="240" width="104.8" height="38.4" rx="6.4" fill="#232427"/>
<path d="M105.997 258.845C105.997 260.147 106.104 261.145 106.317 261.837C106.531 262.525 106.968 262.869 107.63 262.869C108.291 262.869 108.724 262.525 108.927 261.837C109.135 261.145 109.239 260.147 109.239 258.845C109.239 257.481 109.135 256.47 108.927 255.814C108.724 255.158 108.291 254.83 107.63 254.83C106.968 254.83 106.531 255.158 106.317 255.814C106.104 256.47 105.997 257.481 105.997 258.845ZM107.63 252.994C109.073 252.994 110.083 253.501 110.661 254.517C111.244 255.533 111.536 256.975 111.536 258.845C111.536 260.715 111.244 262.155 110.661 263.166C110.083 264.176 109.073 264.681 107.63 264.681C106.187 264.681 105.174 264.176 104.591 263.166C104.013 262.155 103.724 260.715 103.724 258.845C103.724 256.975 104.013 255.533 104.591 254.517C105.174 253.501 106.187 252.994 107.63 252.994ZM114.864 261.111C114.864 261.668 115.007 262.1 115.294 262.408C115.586 262.715 115.987 262.869 116.497 262.869C117.007 262.869 117.406 262.715 117.692 262.408C117.984 262.1 118.13 261.668 118.13 261.111C118.13 260.533 117.981 260.095 117.685 259.798C117.393 259.496 116.997 259.345 116.497 259.345C115.997 259.345 115.599 259.496 115.302 259.798C115.01 260.095 114.864 260.533 114.864 261.111ZM112.552 261.259C112.552 260.624 112.695 260.048 112.981 259.533C113.273 259.017 113.698 258.629 114.255 258.369C113.708 258.004 113.351 257.611 113.185 257.189C113.023 256.762 112.942 256.363 112.942 255.994C112.942 255.171 113.252 254.47 113.872 253.892C114.492 253.309 115.367 253.017 116.497 253.017C117.627 253.017 118.502 253.309 119.122 253.892C119.742 254.47 120.052 255.171 120.052 255.994C120.052 256.363 119.968 256.762 119.802 257.189C119.64 257.611 119.286 257.978 118.739 258.291C119.297 258.603 119.716 259.017 119.997 259.533C120.278 260.048 120.419 260.624 120.419 261.259C120.419 262.212 120.065 263.025 119.356 263.697C118.653 264.363 117.669 264.697 116.403 264.697C115.138 264.697 114.179 264.363 113.528 263.697C112.877 263.025 112.552 262.212 112.552 261.259ZM115.067 256.244C115.067 256.655 115.192 256.991 115.442 257.251C115.698 257.512 116.049 257.642 116.497 257.642C116.95 257.642 117.299 257.512 117.544 257.251C117.794 256.991 117.919 256.655 117.919 256.244C117.919 255.796 117.794 255.447 117.544 255.197C117.299 254.942 116.95 254.814 116.497 254.814C116.049 254.814 115.698 254.942 115.442 255.197C115.192 255.447 115.067 255.796 115.067 256.244ZM122.849 256.22H125.216V258.548H122.849V256.22ZM122.849 262.072H125.216V264.4H122.849V262.072ZM129.138 258.845C129.138 260.147 129.244 261.145 129.458 261.837C129.672 262.525 130.109 262.869 130.771 262.869C131.432 262.869 131.864 262.525 132.067 261.837C132.276 261.145 132.38 260.147 132.38 258.845C132.38 257.481 132.276 256.47 132.067 255.814C131.864 255.158 131.432 254.83 130.771 254.83C130.109 254.83 129.672 255.158 129.458 255.814C129.244 256.47 129.138 257.481 129.138 258.845ZM130.771 252.994C132.213 252.994 133.224 253.501 133.802 254.517C134.385 255.533 134.677 256.975 134.677 258.845C134.677 260.715 134.385 262.155 133.802 263.166C133.224 264.176 132.213 264.681 130.771 264.681C129.328 264.681 128.315 264.176 127.731 263.166C127.153 262.155 126.864 260.715 126.864 258.845C126.864 256.975 127.153 255.533 127.731 254.517C128.315 253.501 129.328 252.994 130.771 252.994ZM138.044 258.845C138.044 260.147 138.151 261.145 138.364 261.837C138.578 262.525 139.015 262.869 139.677 262.869C140.338 262.869 140.771 262.525 140.974 261.837C141.182 261.145 141.286 260.147 141.286 258.845C141.286 257.481 141.182 256.47 140.974 255.814C140.771 255.158 140.338 254.83 139.677 254.83C139.015 254.83 138.578 255.158 138.364 255.814C138.151 256.47 138.044 257.481 138.044 258.845ZM139.677 252.994C141.119 252.994 142.13 253.501 142.708 254.517C143.291 255.533 143.583 256.975 143.583 258.845C143.583 260.715 143.291 262.155 142.708 263.166C142.13 264.176 141.119 264.681 139.677 264.681C138.234 264.681 137.221 264.176 136.638 263.166C136.06 262.155 135.771 260.715 135.771 258.845C135.771 256.975 136.06 255.533 136.638 254.517C137.221 253.501 138.234 252.994 139.677 252.994Z" fill="white"/>
<rect x="741" y="240" width="104.8" height="38.4" rx="6.4" fill="#232427"/>
<path d="M774.997 258.845C774.997 260.147 775.104 261.145 775.317 261.837C775.531 262.525 775.968 262.869 776.63 262.869C777.291 262.869 777.724 262.525 777.927 261.837C778.135 261.145 778.239 260.147 778.239 258.845C778.239 257.481 778.135 256.47 777.927 255.814C777.724 255.158 777.291 254.83 776.63 254.83C775.968 254.83 775.531 255.158 775.317 255.814C775.104 256.47 774.997 257.481 774.997 258.845ZM776.63 252.994C778.073 252.994 779.083 253.501 779.661 254.517C780.244 255.533 780.536 256.975 780.536 258.845C780.536 260.715 780.244 262.155 779.661 263.166C779.083 264.176 778.073 264.681 776.63 264.681C775.187 264.681 774.174 264.176 773.591 263.166C773.013 262.155 772.724 260.715 772.724 258.845C772.724 256.975 773.013 255.533 773.591 254.517C774.174 253.501 775.187 252.994 776.63 252.994ZM781.606 257.056C781.606 255.843 781.955 254.861 782.653 254.111C783.356 253.356 784.268 252.978 785.388 252.978C787.112 252.978 788.294 253.741 788.935 255.267C789.299 256.132 789.481 257.27 789.481 258.681C789.481 260.051 789.307 261.194 788.958 262.111C788.291 263.856 787.067 264.728 785.286 264.728C784.437 264.728 783.674 264.478 782.997 263.978C782.32 263.473 781.932 262.738 781.833 261.775H784.052C784.104 262.108 784.244 262.379 784.474 262.587C784.703 262.796 785.007 262.9 785.388 262.9C786.122 262.9 786.638 262.494 786.935 261.681C787.096 261.233 787.198 260.58 787.239 259.72C787.036 259.975 786.82 260.171 786.591 260.306C786.174 260.556 785.661 260.681 785.052 260.681C784.151 260.681 783.351 260.371 782.653 259.751C781.955 259.126 781.606 258.228 781.606 257.056ZM785.536 258.869C785.843 258.869 786.132 258.78 786.403 258.603C786.909 258.28 787.161 257.72 787.161 256.923C787.161 256.283 787.01 255.775 786.708 255.4C786.411 255.025 786.002 254.837 785.481 254.837C785.101 254.837 784.776 254.944 784.505 255.158C784.078 255.491 783.864 256.056 783.864 256.853C783.864 257.525 784 258.03 784.271 258.369C784.547 258.702 784.968 258.869 785.536 258.869ZM791.849 256.22H794.216V258.548H791.849V256.22ZM791.849 262.072H794.216V264.4H791.849V262.072ZM798.138 258.845C798.138 260.147 798.244 261.145 798.458 261.837C798.672 262.525 799.109 262.869 799.771 262.869C800.432 262.869 800.864 262.525 801.067 261.837C801.276 261.145 801.38 260.147 801.38 258.845C801.38 257.481 801.276 256.47 801.067 255.814C800.864 255.158 800.432 254.83 799.771 254.83C799.109 254.83 798.672 255.158 798.458 255.814C798.244 256.47 798.138 257.481 798.138 258.845ZM799.771 252.994C801.213 252.994 802.224 253.501 802.802 254.517C803.385 255.533 803.677 256.975 803.677 258.845C803.677 260.715 803.385 262.155 802.802 263.166C802.224 264.176 801.213 264.681 799.771 264.681C798.328 264.681 797.315 264.176 796.731 263.166C796.153 262.155 795.864 260.715 795.864 258.845C795.864 256.975 796.153 255.533 796.731 254.517C797.315 253.501 798.328 252.994 799.771 252.994ZM807.044 258.845C807.044 260.147 807.151 261.145 807.364 261.837C807.578 262.525 808.015 262.869 808.677 262.869C809.338 262.869 809.771 262.525 809.974 261.837C810.182 261.145 810.286 260.147 810.286 258.845C810.286 257.481 810.182 256.47 809.974 255.814C809.771 255.158 809.338 254.83 808.677 254.83C808.015 254.83 807.578 255.158 807.364 255.814C807.151 256.47 807.044 257.481 807.044 258.845ZM808.677 252.994C810.119 252.994 811.13 253.501 811.708 254.517C812.291 255.533 812.583 256.975 812.583 258.845C812.583 260.715 812.291 262.155 811.708 263.166C811.13 264.176 810.119 264.681 808.677 264.681C807.234 264.681 806.221 264.176 805.638 263.166C805.06 262.155 804.771 260.715 804.771 258.845C804.771 256.975 805.06 255.533 805.638 254.517C806.221 253.501 807.234 252.994 808.677 252.994Z" fill="white"/>
</svg>
