<svg width="295" height="40" viewBox="0 0 295 40" fill="none" xmlns="http://www.w3.org/2000/svg">
<g clip-path="url(#clip0_22_555)">
<path d="M94.7857 20.6442C94.8569 21.9825 94.6633 23.3217 94.2158 24.585C93.7684 25.8483 93.076 27.0109 92.1784 28.0061C91.2007 29.0902 89.9948 29.9441 88.6476 30.5063C87.3004 31.0685 85.8453 31.3251 84.387 31.2577C82.9448 31.2643 81.5168 30.9736 80.192 30.4036C78.8673 29.8336 77.6743 28.9965 76.6876 27.9448C75.6572 26.8523 74.8552 25.5652 74.3284 24.1588C73.8017 22.7525 73.5609 21.2552 73.6201 19.7546C73.5295 16.7188 74.6305 13.7682 76.6876 11.5337C77.6685 10.4745 78.8604 9.63252 80.1864 9.06193C81.5125 8.49134 82.9434 8.20483 84.387 8.22085C85.9546 8.20947 87.5086 8.51193 88.9575 9.11042C90.2633 9.64637 91.4283 10.4755 92.3624 11.5337L90.4299 13.5583C89.7624 12.6848 88.8725 12.0068 87.8532 11.5951C86.8019 11.1239 85.6618 10.8833 84.5097 10.8896C83.4178 10.8685 82.3339 11.0791 81.3293 11.5073C80.3247 11.9356 79.4223 12.5719 78.6815 13.3742C77.081 15.0821 76.2209 17.3536 76.2888 19.6932C76.2209 22.0328 77.081 24.3044 78.6815 26.0123C79.4259 26.81 80.329 27.4432 81.3327 27.8711C82.3365 28.299 83.4186 28.5122 84.5097 28.4969C86.4386 28.578 88.3258 27.9197 89.7857 26.6564C91.1586 25.3098 91.9605 23.4864 92.025 21.5644H84.387V18.9264H94.663C94.7244 19.5705 94.7857 20.092 94.7857 20.6442Z" fill="white"/>
<path d="M98.1592 30.7976V8.77302H104.601C106.039 8.69933 107.475 8.93504 108.814 9.46422C110.153 9.99341 111.363 10.8037 112.362 11.8405C113.39 12.8902 114.193 14.1393 114.72 15.5109C115.248 16.8825 115.489 18.3476 115.429 19.816C115.486 21.2839 115.243 22.748 114.715 24.1191C114.188 25.4902 113.387 26.7396 112.362 27.7914C111.35 28.8109 110.138 29.6099 108.802 30.1378C107.467 30.6657 106.036 30.9113 104.601 30.8589L98.1592 30.7976ZM100.889 11.4724V28.0675H104.601C105.67 28.1262 106.74 27.963 107.743 27.5882C108.746 27.2134 109.66 26.635 110.429 25.8896C111.186 25.0661 111.769 24.0983 112.144 23.0442C112.518 21.99 112.675 20.8711 112.607 19.7546C112.67 18.6386 112.51 17.5211 112.136 16.4677C111.762 15.4143 111.182 14.446 110.429 13.6196C109.668 12.8601 108.756 12.2684 107.752 11.8827C106.748 11.497 105.675 11.3259 104.601 11.3804L100.889 11.4724Z" fill="white"/>
<path d="M138.927 20.6442C138.998 21.9825 138.804 23.3217 138.357 24.585C137.909 25.8484 137.217 27.0109 136.319 28.0061C135.341 29.0902 134.136 29.9441 132.788 30.5063C131.441 31.0685 129.986 31.3252 128.528 31.2577C127.065 31.2814 125.613 30.9989 124.266 30.4284C122.919 29.8578 121.706 29.0119 120.706 27.9448C119.677 26.8513 118.876 25.564 118.349 24.1579C117.822 22.7518 117.581 21.255 117.638 19.7546C117.551 16.7194 118.651 13.7699 120.706 11.5337C121.699 10.4574 122.911 9.60523 124.26 9.03398C125.608 8.46272 127.063 8.18553 128.528 8.22087C130.044 8.22248 131.546 8.52484 132.945 9.11044C134.262 9.62667 135.431 10.4589 136.35 11.5337L134.417 13.5583C133.767 12.6935 132.899 12.0162 131.902 11.5951C130.851 11.1239 129.711 10.8833 128.558 10.8896C127.466 10.8646 126.381 11.0734 125.376 11.5019C124.371 11.9304 123.469 12.5688 122.73 13.3742C121.13 15.0821 120.27 17.3537 120.338 19.6933C120.261 22.0286 121.11 24.2995 122.7 26.0123C123.442 26.8131 124.344 27.4483 125.349 27.8764C126.353 28.3046 127.436 28.516 128.528 28.4969C129.491 28.5508 130.455 28.414 131.365 28.0945C132.275 27.775 133.113 27.279 133.832 26.635C134.55 25.991 135.134 25.2116 135.55 24.3415C135.966 23.4714 136.207 22.5277 136.258 21.5644H128.528V18.9264H138.804C138.865 19.5706 138.927 20.092 138.927 20.6442Z" fill="white"/>
<path d="M149.08 30.7976H146.013L154.019 8.77301H157.086L165.092 30.7976H162.025L159.97 24.816H151.074L149.08 30.7976ZM155.522 12.3926L152.086 22.1779H159.111L155.645 12.2393L155.522 12.3926Z" fill="white"/>
<path d="M169.816 8.77301V30.7976H167.116V8.77301H169.816Z" fill="white"/>
<path d="M179.418 37.9448C178.651 37.9415 177.888 37.8384 177.148 37.638C176.464 37.4354 175.814 37.1359 175.215 36.7485C174.662 36.3724 174.166 35.9177 173.743 35.3988C173.325 34.8655 173.003 34.2635 172.792 33.6196L175.338 32.5153C175.597 33.3731 176.137 34.1187 176.872 34.6319C177.612 35.1684 178.503 35.4582 179.418 35.4601C180.058 35.4907 180.697 35.3864 181.294 35.1539C181.891 34.9213 182.433 34.5658 182.884 34.1104C183.744 33.0263 184.161 31.6557 184.05 30.2761V28.8344C183.542 29.648 182.821 30.3061 181.964 30.7362C181.084 31.199 180.105 31.4411 179.111 31.4417C178.179 31.4418 177.258 31.2356 176.415 30.8378C175.571 30.4401 174.826 29.8607 174.234 29.1411C172.914 27.5815 172.196 25.6012 172.209 23.5583C172.154 21.4859 172.864 19.4658 174.203 17.8834C174.793 17.1559 175.535 16.5671 176.378 16.1589C177.221 15.7507 178.144 15.5331 179.08 15.5215C180.074 15.5221 181.053 15.7642 181.933 16.227C182.759 16.7014 183.47 17.3505 184.019 18.1288V15.9203H186.626V30.3068C186.687 31.3376 186.541 32.3701 186.199 33.3443C185.857 34.3186 185.324 35.215 184.632 35.9816C183.208 37.2773 181.343 37.9796 179.418 37.9448ZM179.418 28.7423C180.048 28.7485 180.671 28.6107 181.24 28.3396C181.808 28.0685 182.308 27.6712 182.7 27.1779C183.178 26.6301 183.544 25.993 183.776 25.3034C184.007 24.6138 184.1 23.8852 184.05 23.1595C184.127 21.7551 183.691 20.3706 182.823 19.2638C182.422 18.7813 181.921 18.3929 181.354 18.1264C180.786 17.8598 180.167 17.7216 179.54 17.7216C178.914 17.7216 178.294 17.8598 177.727 18.1264C177.16 18.3929 176.658 18.7813 176.258 19.2638C175.3 20.33 174.794 21.727 174.847 23.1595C174.797 24.5848 175.266 25.98 176.166 27.0859C176.556 27.6068 177.067 28.0245 177.655 28.3026C178.243 28.5806 178.89 28.7105 179.54 28.681L179.418 28.7423Z" fill="white"/>
<path d="M193.528 10.4601C193.536 10.7251 193.492 10.989 193.397 11.2366C193.302 11.4841 193.159 11.7103 192.976 11.9018C192.798 12.0846 192.586 12.2299 192.352 12.3291C192.117 12.4283 191.865 12.4794 191.611 12.4794C191.356 12.4794 191.104 12.4283 190.87 12.3291C190.635 12.2299 190.423 12.0846 190.246 11.9018C190.062 11.7103 189.919 11.4841 189.824 11.2366C189.73 10.989 189.685 10.7251 189.693 10.4601C189.665 9.94346 189.841 9.43635 190.184 9.04907C190.362 8.86633 190.574 8.72104 190.808 8.62183C191.043 8.52262 191.295 8.4715 191.549 8.4715C191.804 8.4715 192.056 8.52262 192.29 8.62183C192.525 8.72104 192.737 8.86633 192.914 9.04907C193.106 9.23083 193.26 9.44951 193.365 9.69198C193.47 9.93445 193.526 10.1957 193.528 10.4601ZM192.976 15.6748V30.7362H190.184V15.6748H192.976Z" fill="white"/>
<path d="M202.884 31.2577C201.895 31.2824 200.912 31.0891 200.005 30.6915C199.099 30.2939 198.291 29.7018 197.639 28.9571C196.242 27.3805 195.505 25.3261 195.584 23.2209C195.495 21.1063 196.207 19.0359 197.578 17.4234C198.211 16.6808 199.003 16.089 199.894 15.691C200.786 15.293 201.755 15.0989 202.731 15.1227C203.701 15.0757 204.669 15.2597 205.554 15.6597C206.439 16.0597 207.217 16.6641 207.823 17.4234C209.21 19.1557 209.899 21.3439 209.755 23.5583V23.8651H198.314C198.304 24.5171 198.424 25.1645 198.666 25.77C198.909 26.3755 199.268 26.927 199.725 27.3927C200.533 28.2286 201.631 28.7227 202.792 28.773C203.669 28.7706 204.527 28.5105 205.257 28.0252C205.988 27.5398 206.56 26.8506 206.903 26.043L209.326 27.27C208.739 28.5395 207.789 29.6069 206.596 30.3375C205.471 30.9892 204.184 31.3084 202.884 31.2577ZM198.528 21.4111H206.811C206.779 20.9129 206.649 20.4259 206.428 19.9783C206.207 19.5307 205.899 19.1315 205.522 18.8037C204.734 18.1475 203.741 17.7882 202.716 17.7882C201.69 17.7882 200.697 18.1475 199.909 18.8037C199.214 19.5269 198.736 20.4301 198.528 21.4111Z" fill="white"/>
<path d="M215 30.7975H212.27V15.7362H214.877V18.2209C215.206 17.3654 215.796 16.6354 216.564 16.135C217.318 15.6016 218.217 15.3125 219.141 15.3067C219.814 15.2832 220.485 15.4089 221.104 15.6748L220.276 18.3742C219.756 18.2329 219.219 18.1607 218.681 18.1595C218.166 18.1523 217.657 18.265 217.194 18.4886C216.731 18.7123 216.326 19.0407 216.012 19.4478C215.273 20.2983 214.87 21.3888 214.877 22.5153L215 30.7975Z" fill="white"/>
<path d="M233.497 26.6258C233.495 27.2682 233.344 27.9015 233.057 28.4761C232.769 29.0508 232.353 29.5513 231.841 29.9387C230.662 30.8627 229.196 31.3408 227.699 31.2884C226.356 31.3058 225.041 30.9006 223.94 30.13C222.839 29.3594 222.008 28.2623 221.564 26.9939L223.926 25.8896C224.23 26.7245 224.761 27.4578 225.46 28.0061C226.08 28.5192 226.864 28.7915 227.669 28.773C228.43 28.8247 229.186 28.6194 229.816 28.1902C230.063 28.0584 230.272 27.8648 230.423 27.6283C230.573 27.3918 230.66 27.1204 230.675 26.8405C230.675 25.8896 229.939 25.1841 228.528 24.7239L226.043 24.0491C223.19 23.2822 221.779 21.9325 221.779 19.816C221.752 19.1751 221.883 18.5374 222.161 17.9595C222.44 17.3816 222.856 16.8813 223.374 16.5031C224.572 15.6256 226.032 15.182 227.515 15.2454C228.729 15.2153 229.925 15.5463 230.951 16.1963C231.948 16.7693 232.717 17.6685 233.129 18.7423L230.675 19.816C230.402 19.1883 229.927 18.67 229.325 18.3436C228.682 17.9717 227.951 17.7809 227.209 17.7914C226.524 17.7806 225.852 17.9727 225.276 18.3436C225.03 18.4745 224.824 18.6686 224.679 18.9059C224.533 19.1431 224.453 19.4149 224.448 19.6933C224.448 20.5828 225.245 21.1657 226.779 21.5337L228.988 22.1166C232.055 22.8221 233.497 24.2945 233.497 26.6258Z" fill="white"/>
<path d="M94.7857 20.6442C94.8569 21.9825 94.6633 23.3217 94.2158 24.585C93.7684 25.8483 93.076 27.0109 92.1784 28.0061C91.2007 29.0902 89.9948 29.9441 88.6476 30.5063C87.3004 31.0685 85.8453 31.3251 84.387 31.2577C82.9448 31.2643 81.5168 30.9736 80.192 30.4036C78.8673 29.8336 77.6743 28.9965 76.6876 27.9448C75.6572 26.8523 74.8552 25.5652 74.3284 24.1588C73.8017 22.7525 73.5609 21.2552 73.6201 19.7546C73.5295 16.7188 74.6305 13.7682 76.6876 11.5337C77.6685 10.4745 78.8604 9.63252 80.1864 9.06193C81.5125 8.49134 82.9434 8.20483 84.387 8.22085C85.9546 8.20947 87.5086 8.51193 88.9575 9.11042C90.2633 9.64637 91.4283 10.4755 92.3624 11.5337L90.4299 13.5583C89.7624 12.6848 88.8725 12.0068 87.8532 11.5951C86.8019 11.1239 85.6618 10.8833 84.5097 10.8896C83.4178 10.8685 82.3339 11.0791 81.3293 11.5073C80.3247 11.9356 79.4223 12.5719 78.6815 13.3742C77.081 15.0821 76.2209 17.3536 76.2888 19.6932C76.2209 22.0328 77.081 24.3044 78.6815 26.0123C79.4259 26.81 80.329 27.4432 81.3327 27.8711C82.3365 28.299 83.4186 28.5122 84.5097 28.4969C86.4386 28.578 88.3258 27.9197 89.7857 26.6564C91.1586 25.3098 91.9605 23.4864 92.025 21.5644H84.387V18.9264H94.663C94.7244 19.5705 94.7857 20.092 94.7857 20.6442Z" fill="white"/>
<path d="M98.1592 30.7976V8.77302H104.601C106.039 8.69933 107.475 8.93504 108.814 9.46422C110.153 9.99341 111.363 10.8037 112.362 11.8405C113.39 12.8902 114.193 14.1393 114.72 15.5109C115.248 16.8825 115.489 18.3476 115.429 19.816C115.486 21.2839 115.243 22.748 114.715 24.1191C114.188 25.4902 113.387 26.7396 112.362 27.7914C111.35 28.8109 110.138 29.6099 108.802 30.1378C107.467 30.6657 106.036 30.9113 104.601 30.8589L98.1592 30.7976ZM100.889 11.4724V28.0675H104.601C105.67 28.1262 106.74 27.963 107.743 27.5882C108.746 27.2134 109.66 26.635 110.429 25.8896C111.186 25.0661 111.769 24.0983 112.144 23.0442C112.518 21.99 112.675 20.8711 112.607 19.7546C112.67 18.6386 112.51 17.5211 112.136 16.4677C111.762 15.4143 111.182 14.446 110.429 13.6196C109.668 12.8601 108.756 12.2684 107.752 11.8827C106.748 11.497 105.675 11.3259 104.601 11.3804L100.889 11.4724Z" fill="white"/>
<path d="M138.927 20.6442C138.998 21.9825 138.804 23.3217 138.357 24.585C137.909 25.8484 137.217 27.0109 136.319 28.0061C135.341 29.0902 134.136 29.9441 132.788 30.5063C131.441 31.0685 129.986 31.3252 128.528 31.2577C127.065 31.2814 125.613 30.9989 124.266 30.4284C122.919 29.8578 121.706 29.0119 120.706 27.9448C119.677 26.8513 118.876 25.564 118.349 24.1579C117.822 22.7518 117.581 21.255 117.638 19.7546C117.551 16.7194 118.651 13.7699 120.706 11.5337C121.699 10.4574 122.911 9.60523 124.26 9.03398C125.608 8.46272 127.063 8.18553 128.528 8.22087C130.044 8.22248 131.546 8.52484 132.945 9.11044C134.262 9.62667 135.431 10.4589 136.35 11.5337L134.417 13.5583C133.767 12.6935 132.899 12.0162 131.902 11.5951C130.851 11.1239 129.711 10.8833 128.558 10.8896C127.466 10.8646 126.381 11.0734 125.376 11.5019C124.371 11.9304 123.469 12.5688 122.73 13.3742C121.13 15.0821 120.27 17.3537 120.338 19.6933C120.261 22.0286 121.11 24.2995 122.7 26.0123C123.442 26.8131 124.344 27.4483 125.349 27.8764C126.353 28.3046 127.436 28.516 128.528 28.4969C129.491 28.5508 130.455 28.414 131.365 28.0945C132.275 27.775 133.113 27.279 133.832 26.635C134.55 25.991 135.134 25.2116 135.55 24.3415C135.966 23.4714 136.207 22.5277 136.258 21.5644H128.528V18.9264H138.804C138.865 19.5706 138.927 20.092 138.927 20.6442Z" fill="white"/>
<path d="M149.08 30.7976H146.013L154.019 8.77301H157.086L165.092 30.7976H162.025L159.97 24.816H151.074L149.08 30.7976ZM155.522 12.3926L152.086 22.1779H159.111L155.645 12.2393L155.522 12.3926Z" fill="white"/>
<path d="M169.816 8.77301V30.7976H167.116V8.77301H169.816Z" fill="white"/>
<path d="M179.418 37.9448C178.651 37.9415 177.888 37.8384 177.148 37.638C176.464 37.4354 175.814 37.1359 175.215 36.7485C174.662 36.3724 174.166 35.9177 173.743 35.3988C173.325 34.8655 173.003 34.2635 172.792 33.6196L175.338 32.5153C175.597 33.3731 176.137 34.1187 176.872 34.6319C177.612 35.1684 178.503 35.4582 179.418 35.4601C180.058 35.4907 180.697 35.3864 181.294 35.1539C181.891 34.9213 182.433 34.5658 182.884 34.1104C183.744 33.0263 184.161 31.6557 184.05 30.2761V28.8344C183.542 29.648 182.821 30.3061 181.964 30.7362C181.084 31.199 180.105 31.4411 179.111 31.4417C178.179 31.4418 177.258 31.2356 176.415 30.8378C175.571 30.4401 174.826 29.8607 174.234 29.1411C172.914 27.5815 172.196 25.6012 172.209 23.5583C172.154 21.4859 172.864 19.4658 174.203 17.8834C174.793 17.1559 175.535 16.5671 176.378 16.1589C177.221 15.7507 178.144 15.5331 179.08 15.5215C180.074 15.5221 181.053 15.7642 181.933 16.227C182.759 16.7014 183.47 17.3505 184.019 18.1288V15.9203H186.626V30.3068C186.687 31.3376 186.541 32.3701 186.199 33.3443C185.857 34.3186 185.324 35.215 184.632 35.9816C183.208 37.2773 181.343 37.9796 179.418 37.9448ZM179.418 28.7423C180.048 28.7485 180.671 28.6107 181.24 28.3396C181.808 28.0685 182.308 27.6712 182.7 27.1779C183.178 26.6301 183.544 25.993 183.776 25.3034C184.007 24.6138 184.1 23.8852 184.05 23.1595C184.127 21.7551 183.691 20.3706 182.823 19.2638C182.422 18.7813 181.921 18.3929 181.354 18.1264C180.786 17.8598 180.167 17.7216 179.54 17.7216C178.914 17.7216 178.294 17.8598 177.727 18.1264C177.16 18.3929 176.658 18.7813 176.258 19.2638C175.3 20.33 174.794 21.727 174.847 23.1595C174.797 24.5848 175.266 25.98 176.166 27.0859C176.556 27.6068 177.067 28.0245 177.655 28.3026C178.243 28.5806 178.89 28.7105 179.54 28.681L179.418 28.7423Z" fill="white"/>
<path d="M193.528 10.4601C193.536 10.7251 193.492 10.989 193.397 11.2366C193.302 11.4841 193.159 11.7103 192.976 11.9018C192.798 12.0846 192.586 12.2299 192.352 12.3291C192.117 12.4283 191.865 12.4794 191.611 12.4794C191.356 12.4794 191.104 12.4283 190.87 12.3291C190.635 12.2299 190.423 12.0846 190.246 11.9018C190.062 11.7103 189.919 11.4841 189.824 11.2366C189.73 10.989 189.685 10.7251 189.693 10.4601C189.665 9.94346 189.841 9.43635 190.184 9.04907C190.362 8.86633 190.574 8.72104 190.808 8.62183C191.043 8.52262 191.295 8.4715 191.549 8.4715C191.804 8.4715 192.056 8.52262 192.29 8.62183C192.525 8.72104 192.737 8.86633 192.914 9.04907C193.106 9.23083 193.26 9.44951 193.365 9.69198C193.47 9.93445 193.526 10.1957 193.528 10.4601ZM192.976 15.6748V30.7362H190.184V15.6748H192.976Z" fill="white"/>
<path d="M202.884 31.2577C201.895 31.2824 200.912 31.0891 200.005 30.6915C199.099 30.2939 198.291 29.7018 197.639 28.9571C196.242 27.3805 195.505 25.3261 195.584 23.2209C195.495 21.1063 196.207 19.0359 197.578 17.4234C198.211 16.6808 199.003 16.089 199.894 15.691C200.786 15.293 201.755 15.0989 202.731 15.1227C203.701 15.0757 204.669 15.2597 205.554 15.6597C206.439 16.0597 207.217 16.6641 207.823 17.4234C209.21 19.1557 209.899 21.3439 209.755 23.5583V23.8651H198.314C198.304 24.5171 198.424 25.1645 198.666 25.77C198.909 26.3755 199.268 26.927 199.725 27.3927C200.533 28.2286 201.631 28.7227 202.792 28.773C203.669 28.7706 204.527 28.5105 205.257 28.0252C205.988 27.5398 206.56 26.8506 206.903 26.043L209.326 27.27C208.739 28.5395 207.789 29.6069 206.596 30.3375C205.471 30.9892 204.184 31.3084 202.884 31.2577ZM198.528 21.4111H206.811C206.779 20.9129 206.649 20.4259 206.428 19.9783C206.207 19.5307 205.899 19.1315 205.522 18.8037C204.734 18.1475 203.741 17.7882 202.716 17.7882C201.69 17.7882 200.697 18.1475 199.909 18.8037C199.214 19.5269 198.736 20.4301 198.528 21.4111Z" fill="white"/>
<path d="M215 30.7975H212.27V15.7362H214.877V18.2209C215.206 17.3654 215.796 16.6354 216.564 16.135C217.318 15.6016 218.217 15.3125 219.141 15.3067C219.814 15.2832 220.485 15.4089 221.104 15.6748L220.276 18.3742C219.756 18.2329 219.219 18.1607 218.681 18.1595C218.166 18.1523 217.657 18.265 217.194 18.4886C216.731 18.7123 216.326 19.0407 216.012 19.4478C215.273 20.2983 214.87 21.3888 214.877 22.5153L215 30.7975Z" fill="white"/>
<path d="M233.497 26.6258C233.495 27.2682 233.344 27.9015 233.057 28.4761C232.769 29.0508 232.353 29.5513 231.841 29.9387C230.662 30.8627 229.196 31.3408 227.699 31.2884C226.356 31.3058 225.041 30.9006 223.94 30.13C222.839 29.3594 222.008 28.2623 221.564 26.9939L223.926 25.8896C224.23 26.7245 224.761 27.4578 225.46 28.0061C226.08 28.5192 226.864 28.7915 227.669 28.773C228.43 28.8247 229.186 28.6194 229.816 28.1902C230.063 28.0584 230.272 27.8648 230.423 27.6283C230.573 27.3918 230.66 27.1204 230.675 26.8405C230.675 25.8896 229.939 25.1841 228.528 24.7239L226.043 24.0491C223.19 23.2822 221.779 21.9325 221.779 19.816C221.752 19.1751 221.883 18.5374 222.161 17.9595C222.44 17.3816 222.856 16.8813 223.374 16.5031C224.572 15.6256 226.032 15.182 227.515 15.2454C228.729 15.2153 229.925 15.5463 230.951 16.1963C231.948 16.7693 232.717 17.6685 233.129 18.7423L230.675 19.816C230.402 19.1883 229.927 18.67 229.325 18.3436C228.682 17.9717 227.951 17.7809 227.209 17.7914C226.524 17.7806 225.852 17.9727 225.276 18.3436C225.03 18.4745 224.824 18.6686 224.679 18.9059C224.533 19.1431 224.453 19.4149 224.448 19.6933C224.448 20.5828 225.245 21.1657 226.779 21.5337L228.988 22.1166C232.055 22.8221 233.497 24.2945 233.497 26.6258Z" fill="white"/>
<path d="M19.5706 5.15338L2.54609 15.2454C1.41525 15.9507 0.599501 17.0644 0.268202 18.3554C-0.0630963 19.6463 0.115513 21.0152 0.766946 22.1779C1.06948 22.7495 1.48614 23.2528 1.99112 23.6568C2.4961 24.0608 3.07864 24.3567 3.70267 24.5264C4.3267 24.6961 4.97892 24.7358 5.61893 24.6432C6.25893 24.5505 6.8731 24.3274 7.42339 23.9877L24.54 13.773C25.6576 13.0634 26.4613 11.9531 26.7864 10.6697C27.1115 9.3864 26.9334 8.02732 26.2884 6.87117C25.9783 6.29864 25.5532 5.7964 25.0398 5.39596C24.5264 4.99553 23.9357 4.70557 23.3049 4.54426C22.6741 4.38296 22.0167 4.3538 21.3741 4.45862C20.7315 4.56344 20.1175 4.79998 19.5706 5.15338Z" fill="#EA4334"/>
<path d="M24.3251 25.5828L7.30057 15.3681C6.74958 15.0346 6.13622 14.8174 5.49818 14.7296C4.86014 14.6419 4.2109 14.6856 3.59035 14.8579C2.9698 15.0303 2.39106 15.3278 1.88968 15.732C1.3883 16.1362 0.97487 16.6387 0.674803 17.2086C0.00663749 18.3594 -0.18451 19.726 0.142272 21.0159C0.469055 22.3058 1.2878 23.4166 2.42327 24.1104L19.4478 34.3252C19.9957 34.6643 20.6076 34.8869 21.2453 34.9793C21.883 35.0716 22.5329 35.0316 23.1545 34.8619C23.776 34.6921 24.356 34.3961 24.8582 33.9924C25.3604 33.5887 25.7742 33.0859 26.0736 32.5154C26.7355 31.3581 26.9231 29.9893 26.5971 28.6966C26.271 27.4038 25.4567 26.2878 24.3251 25.5828Z" fill="#4285F4"/>
<path d="M35.6744 25.7669L52.6682 15.5522C53.2216 15.2181 53.8373 15.0004 54.4776 14.9123C55.1179 14.8243 55.7695 14.8677 56.3925 15.0399C57.0155 15.2122 57.5969 15.5097 58.101 15.9142C58.6051 16.3187 59.0215 16.8218 59.3247 17.3926C59.9772 18.5471 60.1596 19.9086 59.834 21.1941C59.5083 22.4795 58.6997 23.59 57.5762 24.2945L40.5517 34.5092C40.0039 34.8468 39.3933 35.0697 38.7569 35.1644C38.1204 35.2592 37.4714 35.2237 36.8491 35.0602C36.2267 34.8968 35.6441 34.6087 35.1363 34.2134C34.6286 33.8182 34.2064 33.324 33.8952 32.7607C33.225 31.5923 33.0359 30.2088 33.368 28.9034C33.7001 27.598 34.5273 26.473 35.6744 25.7669Z" fill="#FCBC05"/>
<path d="M40.7054 5.15338L57.7299 15.3681C58.8749 16.0685 59.7014 17.188 60.0336 18.4884C60.3659 19.7888 60.1777 21.1675 59.5091 22.3313C59.2059 22.9022 58.7895 23.4052 58.2854 23.8098C57.7813 24.2143 57.1999 24.5118 56.5769 24.684C55.9539 24.8563 55.3023 24.8997 54.662 24.8116C54.0217 24.7235 53.406 24.5058 52.8526 24.1718L35.8281 13.9571C34.7105 13.2474 33.9067 12.1371 33.5816 10.8538C33.2565 9.57045 33.4347 8.21137 34.0796 7.05522C34.3743 6.48021 34.7837 5.97176 35.2827 5.56129C35.7816 5.15083 36.3595 4.84708 36.9805 4.66882C37.6015 4.49057 38.2525 4.4416 38.8932 4.52494C39.5339 4.60829 40.1507 4.82217 40.7054 5.15338Z" fill="#0D9D58"/>
<path d="M293.834 38.3129H282.883C276.52 35.2339 271.448 30.0091 268.558 23.5583C268.589 23.4376 268.589 23.3109 268.558 23.1902C267.716 16.1882 267.521 9.12363 267.975 2.08589C267.988 1.97061 267.977 1.85395 267.943 1.74296C267.91 1.63197 267.854 1.52894 267.779 1.44008C267.705 1.35122 267.613 1.27838 267.51 1.22594C267.406 1.1735 267.293 1.14255 267.177 1.13497C267.064 1.12651 266.949 1.14167 266.842 1.17949C266.734 1.21731 266.635 1.27697 266.552 1.35474C266.468 1.43251 266.402 1.5267 266.356 1.6314C266.311 1.7361 266.288 1.84906 266.288 1.96319C265.95 7.39761 265.95 12.8478 266.288 18.2822C265.516 15.9932 264.891 13.6571 264.417 11.2883C264.705 7.85734 265.197 4.44646 265.889 1.07362C265.935 0.846096 265.89 0.609689 265.764 0.41484C265.638 0.21999 265.441 0.0821286 265.214 0.030671C265.099 0.00840748 264.981 0.00900283 264.867 0.0324229C264.752 0.055843 264.643 0.101628 264.546 0.167158C264.45 0.232688 264.367 0.316677 264.302 0.414319C264.238 0.51196 264.193 0.621338 264.171 0.736192C263.681 3.23108 263.282 5.65439 262.975 8.00613C262.825 8.08499 262.698 8.20123 262.607 8.34355C261.758 8.16115 260.879 8.16115 260.03 8.34355C260.014 8.26181 259.981 8.18429 259.933 8.11573C259.886 8.04716 259.825 7.989 259.754 7.94478C259.405 5.49008 258.893 3.06139 258.22 0.674842C258.197 0.560767 258.149 0.453165 258.08 0.359594C258.011 0.266023 257.922 0.188752 257.819 0.133208C257.717 0.077664 257.604 0.0451942 257.488 0.0380788C257.371 0.0309634 257.255 0.0493751 257.147 0.0920206C257.034 0.122662 256.93 0.176682 256.84 0.250552C256.749 0.324422 256.676 0.416478 256.624 0.520704C256.572 0.62493 256.542 0.738979 256.537 0.855399C256.532 0.971819 256.552 1.08799 256.595 1.19632C257.474 4.40858 258.059 7.69407 258.343 11.0123V11.2883C258.084 14.7215 257.297 18.0943 256.012 21.2883C256.541 14.9019 256.674 8.4888 256.411 2.08589C256.411 1.84996 256.317 1.62369 256.15 1.45686C255.983 1.29004 255.757 1.19632 255.521 1.19632C255.285 1.19632 255.059 1.29004 254.892 1.45686C254.725 1.62369 254.631 1.84996 254.631 2.08589C255.019 9.89183 254.68 17.7169 253.619 25.4601V25.6442C250.262 30.8656 245.695 35.2007 240.306 38.2822H230.92C230.722 38.2901 230.534 38.3744 230.397 38.5174C230.26 38.6603 230.183 38.8509 230.184 39.0491C230.183 39.2473 230.26 39.4378 230.397 39.5808C230.534 39.7237 230.722 39.808 230.92 39.8159H293.742C293.94 39.808 294.127 39.7237 294.264 39.5808C294.402 39.4378 294.478 39.2473 294.478 39.0491C294.478 38.589 294.233 38.3129 293.834 38.3129ZM262.576 21.0429C262.576 22.638 262.914 24.1104 263.159 25.6442C262.76 24.6431 262.422 23.6187 262.147 22.5767C262.3 22.1166 262.423 21.5951 262.576 21.0429ZM260.092 10.8282C260.059 10.9799 260.059 11.1367 260.092 11.2883C260.062 11.4506 260.062 11.6169 260.092 11.7791H262.362C262.187 14.3412 261.808 16.8851 261.227 19.3865C260.718 17.31 260.369 15.1974 260.184 13.0675C260.184 12.6687 260.184 12.2393 260.184 11.8405V11.2883C260.111 11.1465 260.079 10.9872 260.092 10.8282ZM259.877 21.0429C259.987 21.5829 260.131 22.1156 260.306 22.638C259.908 23.9877 259.417 25.3681 258.895 26.7178C259.327 24.8457 259.654 22.9512 259.877 21.0429ZM253.128 38.3129H243.65C250.376 34.0313 255.498 27.6471 258.22 20.1534C257.52 26.4428 255.8 32.5763 253.128 38.3129ZM261.012 38.3129C261.012 37.4847 261.012 36.5951 261.288 35.7055C261.288 36.5951 261.288 37.4847 261.564 38.3129H261.012ZM267.147 38.3129H262.362C261.939 34.4311 261.714 30.5304 261.687 26.6258V22.7607C261.691 22.7043 261.684 22.6476 261.666 22.5939C261.648 22.5402 261.62 22.4905 261.583 22.4478C261.546 22.405 261.501 22.37 261.45 22.3448C261.399 22.3195 261.344 22.3045 261.288 22.3006C261.042 22.3006 260.889 22.454 260.889 22.7607V26.6258C260.862 30.51 260.636 34.3902 260.214 38.2515H255.03C255.214 37.8528 259.478 30.2761 260.828 26.6258V22.7607C260.828 22.6387 260.876 22.5217 260.963 22.4354C261.049 22.3491 261.166 22.3006 261.288 22.3006C261.41 22.3006 261.527 22.3491 261.613 22.4354C261.7 22.5217 261.748 22.6387 261.748 22.7607V26.6258C262.975 30.2147 267.3 38.1902 267.3 38.3129H267.147ZM269.233 38.3129C269.018 37.9448 268.865 37.5153 268.619 37.1779C265.651 31.0179 264.13 24.261 264.171 17.4233C266.406 25.9981 271.739 33.4404 279.141 38.3129H269.233Z" fill="white"/>
</g>
<defs>
<clipPath id="clip0_22_555">
<rect width="294.479" height="40" fill="white"/>
</clipPath>
</defs>
</svg>
