<svg width="1270" height="668" viewBox="0 0 1270 668" fill="none" xmlns="http://www.w3.org/2000/svg">
<rect y="132" width="1270" height="536" rx="8" fill="#232427"/>
<path d="M716.274 410.641L715.062 387.43L743.195 389.095L739.114 408.501L716.274 410.641Z" fill="#34363A"/>
<path d="M784.692 359.56L782.645 340.991L884.499 341.155L884.967 359.817L784.692 359.56Z" fill="#34363A"/>
<path d="M781.557 462.065L782.663 424.461L870.219 426.578L864.935 463.161L781.557 462.065Z" fill="#34363A"/>
<path d="M885.26 423.789L885.809 387.485L949.688 388.307L948.86 422.568L885.26 423.789Z" fill="#34363A"/>
<path d="M1058.69 367.299L956.462 368.9L955.515 369.279L953.764 344.668L1093.96 347.794L1092.86 380.012L1057.95 378.906L1058.69 367.299Z" fill="#34363A"/>
<path d="M1091.93 401.924L1091.93 385.769L1070.48 384.659L1070.76 402.857L1091.93 401.924Z" fill="#34363A"/>
<path d="M1088.59 409.724L1069.47 407.686L1069.66 432.383L1089.99 433.4L1088.59 409.724Z" fill="#34363A"/>
<path d="M1062.69 435.17L1059.73 460.054L977.281 463.972L979.594 430.732L1062.69 435.17Z" fill="#34363A"/>
<path d="M1103.14 253.644L1102.15 405.915L1131.39 404.98L1133.4 253.916L1103.14 253.644Z" fill="#34363A"/>
<path d="M1092.92 252.347L1090.89 287.629L1091.63 289.486L1089.4 289.306L889.033 273.096L892.091 244.406L1092.92 252.347Z" fill="#34363A"/>
<path d="M581.239 250.88L578.193 333.422L556.003 335.841L557.464 223.774L646.69 224.683L645.583 254.209L581.239 250.88Z" fill="#34363A"/>
<path d="M526.731 223.688L473.344 223.514L470.659 258.518L525.532 259.713L526.731 223.688Z" fill="#34363A"/>
<path d="M523.678 273.919L471.869 273.652L470.205 307.17L523.593 310.037L523.678 273.919Z" fill="#34363A"/>
<path d="M522.946 323.221L472.158 321.468C470.984 332.889 468.693 356.138 468.916 357.772C469.139 359.406 506.644 360.983 525.369 361.567L522.946 323.221Z" fill="#34363A"/>
<path d="M651.922 369.617L777.453 371.075L777.999 324.001L652.654 320.314L651.922 369.617Z" fill="#34363A"/>
<path d="M628.102 561.724C585.471 584.388 556.302 571.612 547.046 562.392C545.189 564.032 540.27 569.951 535.444 580.499C568.728 616.294 617.277 598.37 637.391 584.934C636.061 585.646 632.34 582.001 628.102 561.724Z" fill="#38E0B7"/>
<path d="M583.249 529.051L590.77 530.349L609.703 494.228L633.008 494.594L647.589 513.532L606.004 560.336L587.617 549.384L563.943 558.86L551.5 551.992L531.436 512.629L544.059 493.035L564.579 491.823L583.249 529.051Z" fill="#34363A"/>
<path d="M746.755 535.236C734.426 543.187 739.083 552.848 742.953 556.685C734.412 560.103 724.849 562.136 721.135 562.725C715.1 562.447 701.209 559.498 693.927 549.918C681.208 554.47 670.529 547.973 667.834 534.511C666.94 525.82 675.691 518.261 680.178 515.567L681.754 502.011L708.491 488.078L716.57 490.769L724.187 509.801L716.112 523.266L729.947 524.191C734.992 523.787 745.416 525.432 746.755 535.236Z" fill="#4807EA"/>
<path d="M673.945 452.896L606.259 451.982L606.627 436.755L592.421 434.901L593.439 419.953L580.44 417.077L582.939 381.609L628.713 384.292L632.247 409.267L672.45 408.794L673.945 452.896Z" fill="#34363A"/>
<path d="M155.097 381.053L154.435 326.923L254.71 327.179L252.679 378.618L155.097 381.053Z" fill="#34363A"/>
<path d="M486.119 477.449C480.549 477.884 458.098 479.294 412.863 481.458L419.092 517.203L445.646 516.268L447.236 567.334L483.171 580.418L486.119 477.449Z" fill="#34363A"/>
<path d="M281.75 425.685L283.148 449.36L83.4319 444.205L83.4272 422.664L152.32 422.556L160.581 409.556L204.684 410.753L206.543 423.473L281.75 425.685Z" fill="#34363A"/>
<path d="M78 504.5V464L1086.5 480.5" stroke="#585860" stroke-width="15"/>
<circle cx="596" cy="548" r="8" fill="#DE4438"/>
<circle cx="1034" cy="435" r="8" fill="#DE4438"/>
<circle cx="1079" cy="400" r="8" fill="#DE4438"/>
<path d="M160.5 423.5H151.5L156 431.5L160.5 423.5Z" fill="#DE4438" stroke="#DE4438" stroke-width="2"/>
<path d="M439 154H430L434.5 162L439 154Z" fill="#DE4438" stroke="#DE4438" stroke-width="2"/>
<path d="M451.658 153.126C452.47 153.126 453.173 153.283 453.766 153.597C454.625 154.049 455.151 154.84 455.344 155.97H454.184C454.042 155.338 453.75 154.879 453.306 154.593C452.863 154.302 452.303 154.157 451.628 154.157C450.827 154.157 450.152 154.457 449.603 155.058C449.057 155.658 448.784 156.553 448.784 157.743C448.784 158.771 449.01 159.609 449.461 160.257C449.913 160.901 450.649 161.223 451.669 161.223C452.451 161.223 453.096 160.997 453.607 160.546C454.121 160.09 454.384 159.356 454.396 158.343H451.687V157.372H455.485V162H454.731L454.449 160.887C454.052 161.323 453.701 161.625 453.395 161.794C452.88 162.084 452.227 162.23 451.434 162.23C450.409 162.23 449.528 161.898 448.79 161.235C447.985 160.402 447.583 159.26 447.583 157.808C447.583 156.359 447.975 155.207 448.761 154.351C449.506 153.535 450.472 153.126 451.658 153.126ZM460.625 160.999C461.022 160.999 461.348 160.958 461.603 160.875C462.058 160.722 462.431 160.428 462.722 159.992C462.953 159.643 463.12 159.195 463.222 158.65C463.281 158.324 463.31 158.022 463.31 157.743C463.31 156.671 463.096 155.839 462.669 155.246C462.245 154.653 461.56 154.357 460.614 154.357H458.535V160.999H460.625ZM457.357 153.35H460.861C462.05 153.35 462.973 153.772 463.628 154.616C464.213 155.378 464.506 156.353 464.506 157.543C464.506 158.461 464.333 159.291 463.988 160.033C463.379 161.344 462.333 162 460.849 162H457.357V153.35ZM469.758 153.126C470.571 153.126 471.273 153.283 471.866 153.597C472.726 154.049 473.252 154.84 473.444 155.97H472.284C472.143 155.338 471.85 154.879 471.407 154.593C470.963 154.302 470.404 154.157 469.729 154.157C468.928 154.157 468.253 154.457 467.703 155.058C467.157 155.658 466.885 156.553 466.885 157.743C466.885 158.771 467.11 159.609 467.562 160.257C468.013 160.901 468.749 161.223 469.77 161.223C470.551 161.223 471.197 160.997 471.707 160.546C472.221 160.09 472.484 159.356 472.496 158.343H469.787V157.372H473.585V162H472.832L472.549 160.887C472.153 161.323 471.801 161.625 471.495 161.794C470.981 162.084 470.327 162.23 469.534 162.23C468.51 162.23 467.628 161.898 466.89 161.235C466.086 160.402 465.683 159.26 465.683 157.808C465.683 156.359 466.076 155.207 466.861 154.351C467.607 153.535 468.573 153.126 469.758 153.126ZM479.527 159.209C479.554 159.7 479.67 160.098 479.874 160.404C480.263 160.977 480.948 161.264 481.929 161.264C482.369 161.264 482.769 161.201 483.13 161.076C483.829 160.832 484.178 160.396 484.178 159.768C484.178 159.297 484.031 158.962 483.737 158.761C483.438 158.565 482.971 158.394 482.335 158.249L481.164 157.984C480.398 157.811 479.856 157.621 479.538 157.413C478.989 157.052 478.714 156.512 478.714 155.794C478.714 155.017 478.983 154.379 479.521 153.88C480.059 153.382 480.82 153.132 481.805 153.132C482.712 153.132 483.482 153.352 484.114 153.792C484.749 154.228 485.067 154.926 485.067 155.888H483.966C483.907 155.425 483.782 155.07 483.59 154.822C483.232 154.371 482.626 154.145 481.77 154.145C481.079 154.145 480.583 154.29 480.28 154.581C479.978 154.871 479.827 155.209 479.827 155.594C479.827 156.018 480.004 156.328 480.357 156.524C480.588 156.65 481.113 156.807 481.929 156.995L483.142 157.272C483.727 157.405 484.178 157.588 484.496 157.819C485.046 158.224 485.321 158.811 485.321 159.58C485.321 160.538 484.971 161.223 484.273 161.635C483.578 162.047 482.769 162.253 481.847 162.253C480.771 162.253 479.929 161.978 479.321 161.429C478.712 160.883 478.414 160.143 478.426 159.209H479.527ZM489.325 161.288C489.819 161.288 490.229 161.081 490.555 160.669C490.885 160.253 491.05 159.633 491.05 158.809C491.05 158.306 490.977 157.874 490.832 157.513C490.557 156.818 490.055 156.471 489.325 156.471C488.591 156.471 488.088 156.838 487.817 157.572C487.672 157.965 487.599 158.463 487.599 159.068C487.599 159.554 487.672 159.969 487.817 160.31C488.092 160.962 488.595 161.288 489.325 161.288ZM486.581 155.723H487.611V156.559C487.823 156.273 488.055 156.051 488.306 155.894C488.663 155.658 489.083 155.541 489.566 155.541C490.281 155.541 490.887 155.815 491.386 156.365C491.884 156.911 492.133 157.692 492.133 158.708C492.133 160.082 491.774 161.064 491.056 161.653C490.6 162.026 490.071 162.212 489.466 162.212C488.991 162.212 488.593 162.108 488.271 161.9C488.082 161.782 487.872 161.58 487.641 161.293V164.514H486.581V155.723ZM495.878 161.317C496.581 161.317 497.062 161.052 497.321 160.522C497.584 159.988 497.715 159.395 497.715 158.744C497.715 158.155 497.621 157.676 497.433 157.307C497.134 156.726 496.62 156.436 495.89 156.436C495.242 156.436 494.771 156.683 494.477 157.178C494.182 157.672 494.035 158.269 494.035 158.968C494.035 159.639 494.182 160.198 494.477 160.646C494.771 161.093 495.238 161.317 495.878 161.317ZM495.919 155.511C496.732 155.511 497.419 155.782 497.98 156.324C498.542 156.865 498.822 157.662 498.822 158.714C498.822 159.731 498.575 160.571 498.08 161.235C497.586 161.898 496.818 162.23 495.778 162.23C494.911 162.23 494.222 161.937 493.711 161.352C493.201 160.763 492.946 159.974 492.946 158.985C492.946 157.925 493.215 157.081 493.753 156.453C494.29 155.825 495.013 155.511 495.919 155.511ZM500.3 153.933H501.372V155.694H502.379V156.559H501.372V160.675C501.372 160.895 501.447 161.042 501.596 161.117C501.678 161.16 501.816 161.182 502.008 161.182C502.059 161.182 502.114 161.182 502.173 161.182C502.232 161.178 502.3 161.172 502.379 161.164V162C502.257 162.035 502.13 162.061 501.996 162.077C501.867 162.092 501.725 162.1 501.572 162.1C501.078 162.1 500.742 161.974 500.565 161.723C500.389 161.468 500.3 161.138 500.3 160.734V156.559H499.447V155.694H500.3V153.933Z" fill="white"/>
<circle cx="550" cy="158" r="8" fill="#DE4438"/>
<path d="M567.49 153.35L569.121 160.387L571.076 153.35H572.348L574.302 160.387L575.933 153.35H577.217L574.944 162H573.714L571.717 154.828L569.71 162H568.479L566.218 153.35H567.49ZM581.951 153.115C583.046 153.115 583.896 153.403 584.501 153.98C585.105 154.557 585.441 155.213 585.508 155.947H584.365C584.236 155.389 583.977 154.948 583.588 154.622C583.203 154.296 582.662 154.133 581.963 154.133C581.111 154.133 580.422 154.434 579.896 155.034C579.374 155.631 579.113 156.547 579.113 157.784C579.113 158.797 579.349 159.619 579.82 160.251C580.295 160.879 581.001 161.193 581.939 161.193C582.803 161.193 583.461 160.862 583.912 160.198C584.151 159.849 584.33 159.39 584.448 158.82H585.59C585.488 159.731 585.151 160.495 584.577 161.111C583.89 161.853 582.964 162.224 581.798 162.224C580.793 162.224 579.949 161.92 579.266 161.311C578.367 160.506 577.918 159.264 577.918 157.584C577.918 156.308 578.255 155.262 578.931 154.445C579.661 153.558 580.668 153.115 581.951 153.115Z" fill="white"/>
<rect x="626" y="148" width="20" height="20" rx="3" fill="#38E0B7"/>
<path d="M658.94 157.313C659.49 157.313 659.924 157.203 660.242 156.983C660.563 156.763 660.724 156.367 660.724 155.794C660.724 155.177 660.501 154.757 660.053 154.534C659.814 154.416 659.494 154.357 659.093 154.357H656.232V157.313H658.94ZM655.06 153.35H659.064C659.723 153.35 660.267 153.446 660.695 153.639C661.508 154.008 661.914 154.689 661.914 155.682C661.914 156.2 661.806 156.624 661.59 156.954C661.378 157.284 661.08 157.548 660.695 157.749C661.033 157.886 661.286 158.067 661.455 158.29C661.627 158.514 661.723 158.877 661.743 159.38L661.784 160.54C661.796 160.869 661.824 161.115 661.867 161.276C661.937 161.551 662.063 161.727 662.244 161.806V162H660.807C660.768 161.925 660.736 161.829 660.713 161.711C660.689 161.594 660.669 161.366 660.654 161.028L660.583 159.586C660.556 159.021 660.346 158.642 659.953 158.449C659.729 158.343 659.378 158.29 658.899 158.29H656.232V162H655.06V153.35ZM666.118 155.552C666.566 155.552 666.999 155.658 667.419 155.87C667.839 156.078 668.159 156.349 668.379 156.683C668.591 157.001 668.732 157.372 668.803 157.796C668.866 158.086 668.897 158.549 668.897 159.185H664.275C664.295 159.825 664.446 160.34 664.728 160.728C665.011 161.113 665.449 161.305 666.041 161.305C666.595 161.305 667.037 161.123 667.366 160.758C667.555 160.546 667.688 160.3 667.767 160.022H668.809C668.781 160.253 668.689 160.512 668.532 160.799C668.379 161.081 668.206 161.313 668.014 161.494C667.692 161.808 667.294 162.02 666.819 162.13C666.564 162.192 666.275 162.224 665.953 162.224C665.168 162.224 664.503 161.939 663.957 161.37C663.411 160.797 663.139 159.996 663.139 158.968C663.139 157.955 663.413 157.132 663.963 156.5C664.512 155.868 665.231 155.552 666.118 155.552ZM667.808 158.343C667.765 157.884 667.665 157.517 667.508 157.242C667.217 156.732 666.732 156.477 666.053 156.477C665.566 156.477 665.158 156.653 664.828 157.007C664.499 157.356 664.324 157.802 664.304 158.343H667.808ZM670.834 160.022C670.866 160.375 670.954 160.646 671.099 160.834C671.366 161.176 671.83 161.346 672.489 161.346C672.882 161.346 673.227 161.262 673.525 161.093C673.824 160.92 673.973 160.656 673.973 160.298C673.973 160.027 673.853 159.821 673.614 159.68C673.461 159.594 673.158 159.494 672.707 159.38L671.865 159.168C671.327 159.034 670.931 158.885 670.675 158.72C670.22 158.434 669.992 158.037 669.992 157.531C669.992 156.934 670.206 156.451 670.634 156.082C671.066 155.713 671.645 155.529 672.371 155.529C673.321 155.529 674.006 155.808 674.426 156.365C674.689 156.718 674.817 157.099 674.809 157.507H673.808C673.788 157.268 673.704 157.05 673.555 156.854C673.311 156.575 672.889 156.436 672.289 156.436C671.888 156.436 671.584 156.512 671.376 156.665C671.172 156.818 671.07 157.021 671.07 157.272C671.07 157.547 671.205 157.766 671.476 157.931C671.633 158.029 671.865 158.116 672.171 158.19L672.872 158.361C673.633 158.546 674.144 158.724 674.403 158.897C674.815 159.168 675.021 159.594 675.021 160.175C675.021 160.736 674.807 161.221 674.379 161.629C673.955 162.037 673.308 162.241 672.436 162.241C671.498 162.241 670.833 162.029 670.44 161.605C670.051 161.178 669.843 160.65 669.816 160.022H670.834ZM676.446 153.933H677.518V155.694H678.525V156.559H677.518V160.675C677.518 160.895 677.592 161.042 677.741 161.117C677.824 161.16 677.961 161.182 678.154 161.182C678.205 161.182 678.26 161.182 678.318 161.182C678.377 161.178 678.446 161.172 678.525 161.164V162C678.403 162.035 678.275 162.061 678.142 162.077C678.012 162.092 677.871 162.1 677.718 162.1C677.223 162.1 676.888 161.974 676.711 161.723C676.534 161.468 676.446 161.138 676.446 160.734V156.559H675.592V155.694H676.446V153.933ZM683.753 157.313C684.303 157.313 684.737 157.203 685.055 156.983C685.376 156.763 685.537 156.367 685.537 155.794C685.537 155.177 685.314 154.757 684.866 154.534C684.627 154.416 684.307 154.357 683.906 154.357H681.045V157.313H683.753ZM679.873 153.35H683.877C684.536 153.35 685.08 153.446 685.508 153.639C686.321 154.008 686.727 154.689 686.727 155.682C686.727 156.2 686.619 156.624 686.403 156.954C686.191 157.284 685.893 157.548 685.508 157.749C685.846 157.886 686.099 158.067 686.268 158.29C686.44 158.514 686.536 158.877 686.556 159.38L686.597 160.54C686.609 160.869 686.637 161.115 686.68 161.276C686.75 161.551 686.876 161.727 687.057 161.806V162H685.62C685.581 161.925 685.549 161.829 685.526 161.711C685.502 161.594 685.482 161.366 685.467 161.028L685.396 159.586C685.369 159.021 685.159 158.642 684.766 158.449C684.542 158.343 684.191 158.29 683.712 158.29H681.045V162H679.873V153.35ZM690.807 161.317C691.51 161.317 691.991 161.052 692.25 160.522C692.513 159.988 692.645 159.395 692.645 158.744C692.645 158.155 692.55 157.676 692.362 157.307C692.064 156.726 691.549 156.436 690.819 156.436C690.171 156.436 689.7 156.683 689.406 157.178C689.112 157.672 688.964 158.269 688.964 158.968C688.964 159.639 689.112 160.198 689.406 160.646C689.7 161.093 690.168 161.317 690.807 161.317ZM690.849 155.511C691.661 155.511 692.348 155.782 692.909 156.324C693.471 156.865 693.751 157.662 693.751 158.714C693.751 159.731 693.504 160.571 693.01 161.235C692.515 161.898 691.748 162.23 690.707 162.23C689.84 162.23 689.151 161.937 688.641 161.352C688.13 160.763 687.875 159.974 687.875 158.985C687.875 157.925 688.144 157.081 688.682 156.453C689.22 155.825 689.942 155.511 690.849 155.511ZM697.52 161.317C698.223 161.317 698.704 161.052 698.963 160.522C699.226 159.988 699.357 159.395 699.357 158.744C699.357 158.155 699.263 157.676 699.074 157.307C698.776 156.726 698.262 156.436 697.532 156.436C696.884 156.436 696.413 156.683 696.119 157.178C695.824 157.672 695.677 158.269 695.677 158.968C695.677 159.639 695.824 160.198 696.119 160.646C696.413 161.093 696.88 161.317 697.52 161.317ZM697.561 155.511C698.374 155.511 699.061 155.782 699.622 156.324C700.183 156.865 700.464 157.662 700.464 158.714C700.464 159.731 700.217 160.571 699.722 161.235C699.228 161.898 698.46 162.23 697.42 162.23C696.552 162.23 695.863 161.937 695.353 161.352C694.843 160.763 694.588 159.974 694.588 158.985C694.588 157.925 694.857 157.081 695.394 156.453C695.932 155.825 696.654 155.511 697.561 155.511ZM701.73 155.694H702.778V156.589C703.029 156.279 703.257 156.053 703.461 155.912C703.811 155.672 704.207 155.552 704.651 155.552C705.153 155.552 705.557 155.676 705.864 155.923C706.036 156.065 706.193 156.273 706.335 156.547C706.57 156.21 706.847 155.961 707.165 155.8C707.483 155.635 707.84 155.552 708.237 155.552C709.084 155.552 709.662 155.859 709.968 156.471C710.133 156.801 710.215 157.244 710.215 157.802V162H709.114V157.619C709.114 157.199 709.008 156.911 708.796 156.754C708.588 156.597 708.333 156.518 708.03 156.518C707.614 156.518 707.255 156.657 706.953 156.936C706.655 157.215 706.505 157.68 706.505 158.332V162H705.428V157.884C705.428 157.456 705.377 157.144 705.275 156.948C705.114 156.653 704.814 156.506 704.374 156.506C703.973 156.506 703.608 156.661 703.279 156.971C702.953 157.282 702.79 157.843 702.79 158.655V162H701.73V155.694Z" fill="white"/>
<rect x="750" y="148" width="20" height="20" rx="3" fill="#4807EA"/>
<path d="M778.948 153.35H780.132V156.924H784.63V153.35H785.814V162H784.63V157.955H780.132V162H778.948V153.35ZM788.304 160.322C788.304 160.628 788.416 160.869 788.64 161.046C788.864 161.223 789.129 161.311 789.435 161.311C789.808 161.311 790.169 161.225 790.518 161.052C791.107 160.765 791.402 160.296 791.402 159.645V158.791C791.272 158.873 791.105 158.942 790.901 158.997C790.697 159.052 790.497 159.091 790.301 159.115L789.659 159.197C789.274 159.248 788.985 159.329 788.793 159.439C788.467 159.623 788.304 159.918 788.304 160.322ZM790.872 158.179C791.115 158.147 791.278 158.045 791.36 157.872C791.408 157.778 791.431 157.643 791.431 157.466C791.431 157.105 791.302 156.844 791.042 156.683C790.787 156.518 790.42 156.436 789.941 156.436C789.388 156.436 788.995 156.585 788.764 156.883C788.634 157.048 788.55 157.293 788.511 157.619H787.521C787.541 156.842 787.792 156.302 788.275 156C788.762 155.694 789.325 155.541 789.965 155.541C790.707 155.541 791.309 155.682 791.773 155.965C792.232 156.247 792.462 156.687 792.462 157.284V160.917C792.462 161.026 792.483 161.115 792.526 161.182C792.573 161.248 792.67 161.282 792.815 161.282C792.862 161.282 792.915 161.28 792.974 161.276C793.033 161.268 793.095 161.258 793.162 161.246V162.029C792.997 162.077 792.872 162.106 792.785 162.118C792.699 162.13 792.581 162.135 792.432 162.135C792.067 162.135 791.802 162.006 791.637 161.747C791.551 161.609 791.49 161.415 791.455 161.164C791.239 161.447 790.929 161.692 790.524 161.9C790.12 162.108 789.674 162.212 789.188 162.212C788.603 162.212 788.124 162.035 787.751 161.682C787.382 161.325 787.197 160.879 787.197 160.345C787.197 159.761 787.38 159.307 787.745 158.985C788.11 158.663 788.589 158.465 789.182 158.391L790.872 158.179ZM796.636 155.511C797.347 155.511 797.924 155.684 798.367 156.029C798.815 156.375 799.084 156.969 799.174 157.813H798.144C798.081 157.425 797.938 157.103 797.714 156.848C797.49 156.589 797.131 156.459 796.636 156.459C795.961 156.459 795.478 156.789 795.188 157.448C794.999 157.876 794.905 158.404 794.905 159.032C794.905 159.664 795.039 160.196 795.306 160.628C795.572 161.06 795.992 161.276 796.566 161.276C797.005 161.276 797.353 161.142 797.608 160.875C797.867 160.604 798.046 160.235 798.144 159.768H799.174C799.056 160.604 798.762 161.217 798.291 161.605C797.82 161.99 797.217 162.183 796.483 162.183C795.659 162.183 795.001 161.882 794.511 161.282C794.02 160.677 793.775 159.923 793.775 159.021C793.775 157.914 794.043 157.052 794.581 156.436C795.119 155.819 795.804 155.511 796.636 155.511ZM800.21 153.35H801.229V158.373L803.949 155.694H805.304L802.89 158.055L805.439 162H804.085L802.118 158.82L801.229 159.633V162H800.21V153.35ZM807.17 159.209C807.198 159.7 807.314 160.098 807.518 160.404C807.906 160.977 808.591 161.264 809.573 161.264C810.012 161.264 810.413 161.201 810.774 161.076C811.473 160.832 811.822 160.396 811.822 159.768C811.822 159.297 811.675 158.962 811.38 158.761C811.082 158.565 810.615 158.394 809.979 158.249L808.807 157.984C808.042 157.811 807.5 157.621 807.182 157.413C806.633 157.052 806.358 156.512 806.358 155.794C806.358 155.017 806.627 154.379 807.164 153.88C807.702 153.382 808.464 153.132 809.449 153.132C810.356 153.132 811.125 153.352 811.757 153.792C812.393 154.228 812.711 154.926 812.711 155.888H811.61C811.551 155.425 811.426 155.07 811.233 154.822C810.876 154.371 810.27 154.145 809.414 154.145C808.723 154.145 808.226 154.29 807.924 154.581C807.622 154.871 807.471 155.209 807.471 155.594C807.471 156.018 807.647 156.328 808.001 156.524C808.232 156.65 808.756 156.807 809.573 156.995L810.786 157.272C811.371 157.405 811.822 157.588 812.14 157.819C812.69 158.224 812.964 158.811 812.964 159.58C812.964 160.538 812.615 161.223 811.916 161.635C811.221 162.047 810.413 162.253 809.49 162.253C808.415 162.253 807.573 161.978 806.964 161.429C806.356 160.883 806.057 160.143 806.069 159.209H807.17ZM816.968 161.288C817.463 161.288 817.873 161.081 818.199 160.669C818.529 160.253 818.694 159.633 818.694 158.809C818.694 158.306 818.621 157.874 818.476 157.513C818.201 156.818 817.699 156.471 816.968 156.471C816.234 156.471 815.732 156.838 815.461 157.572C815.316 157.965 815.243 158.463 815.243 159.068C815.243 159.554 815.316 159.969 815.461 160.31C815.736 160.962 816.238 161.288 816.968 161.288ZM814.224 155.723H815.255V156.559C815.467 156.273 815.698 156.051 815.95 155.894C816.307 155.658 816.727 155.541 817.21 155.541C817.924 155.541 818.531 155.815 819.029 156.365C819.528 156.911 819.777 157.692 819.777 158.708C819.777 160.082 819.418 161.064 818.7 161.653C818.244 162.026 817.714 162.212 817.11 162.212C816.635 162.212 816.236 162.108 815.914 161.9C815.726 161.782 815.516 161.58 815.284 161.293V164.514H814.224V155.723ZM821.832 160.322C821.832 160.628 821.944 160.869 822.168 161.046C822.391 161.223 822.656 161.311 822.963 161.311C823.336 161.311 823.697 161.225 824.046 161.052C824.635 160.765 824.929 160.296 824.929 159.645V158.791C824.8 158.873 824.633 158.942 824.429 158.997C824.225 159.052 824.024 159.091 823.828 159.115L823.186 159.197C822.802 159.248 822.513 159.329 822.321 159.439C821.995 159.623 821.832 159.918 821.832 160.322ZM824.399 158.179C824.643 158.147 824.806 158.045 824.888 157.872C824.935 157.778 824.959 157.643 824.959 157.466C824.959 157.105 824.829 156.844 824.57 156.683C824.315 156.518 823.948 156.436 823.469 156.436C822.915 156.436 822.523 156.585 822.291 156.883C822.162 157.048 822.077 157.293 822.038 157.619H821.049C821.069 156.842 821.32 156.302 821.803 156C822.289 155.694 822.853 155.541 823.493 155.541C824.234 155.541 824.837 155.682 825.3 155.965C825.76 156.247 825.989 156.687 825.989 157.284V160.917C825.989 161.026 826.011 161.115 826.054 161.182C826.101 161.248 826.197 161.282 826.342 161.282C826.39 161.282 826.443 161.28 826.501 161.276C826.56 161.268 826.623 161.258 826.69 161.246V162.029C826.525 162.077 826.399 162.106 826.313 162.118C826.227 162.13 826.109 162.135 825.96 162.135C825.595 162.135 825.33 162.006 825.165 161.747C825.078 161.609 825.018 161.415 824.982 161.164C824.766 161.447 824.456 161.692 824.052 161.9C823.648 162.108 823.202 162.212 822.715 162.212C822.13 162.212 821.651 162.035 821.279 161.682C820.91 161.325 820.725 160.879 820.725 160.345C820.725 159.761 820.908 159.307 821.273 158.985C821.638 158.663 822.117 158.465 822.709 158.391L824.399 158.179ZM830.164 155.511C830.874 155.511 831.451 155.684 831.895 156.029C832.343 156.375 832.611 156.969 832.702 157.813H831.671C831.608 157.425 831.465 157.103 831.241 156.848C831.018 156.589 830.659 156.459 830.164 156.459C829.489 156.459 829.006 156.789 828.715 157.448C828.527 157.876 828.433 158.404 828.433 159.032C828.433 159.664 828.566 160.196 828.833 160.628C829.1 161.06 829.52 161.276 830.093 161.276C830.533 161.276 830.88 161.142 831.135 160.875C831.395 160.604 831.573 160.235 831.671 159.768H832.702C832.584 160.604 832.29 161.217 831.818 161.605C831.347 161.99 830.745 162.183 830.011 162.183C829.186 162.183 828.529 161.882 828.038 161.282C827.548 160.677 827.302 159.923 827.302 159.021C827.302 157.914 827.571 157.052 828.109 156.436C828.647 155.819 829.332 155.511 830.164 155.511ZM836.388 155.552C836.835 155.552 837.269 155.658 837.689 155.87C838.109 156.078 838.429 156.349 838.649 156.683C838.861 157.001 839.002 157.372 839.073 157.796C839.136 158.086 839.167 158.549 839.167 159.185H834.545C834.564 159.825 834.716 160.34 834.998 160.728C835.281 161.113 835.718 161.305 836.311 161.305C836.865 161.305 837.306 161.123 837.636 160.758C837.825 160.546 837.958 160.3 838.036 160.022H839.079C839.051 160.253 838.959 160.512 838.802 160.799C838.649 161.081 838.476 161.313 838.284 161.494C837.962 161.808 837.563 162.02 837.088 162.13C836.833 162.192 836.545 162.224 836.223 162.224C835.438 162.224 834.772 161.939 834.227 161.37C833.681 160.797 833.408 159.996 833.408 158.968C833.408 157.955 833.683 157.132 834.233 156.5C834.782 155.868 835.501 155.552 836.388 155.552ZM838.078 158.343C838.035 157.884 837.934 157.517 837.777 157.242C837.487 156.732 837.002 156.477 836.323 156.477C835.836 156.477 835.428 156.653 835.098 157.007C834.769 157.356 834.594 157.802 834.574 158.343H838.078Z" fill="white"/>
<path d="M177.602 65.7852H168.461V69.4531H176.852V72.4531H168.461V76.8945H178.023V80H164.934V62.7266H177.602V65.7852ZM188.441 67.2266H192.027L187.422 80H183.895L179.312 67.2266H183.062L185.723 76.6484L188.441 67.2266ZM198.965 69.6406C198.191 69.6406 197.59 69.8828 197.16 70.3672C196.738 70.8516 196.473 71.5078 196.363 72.3359H201.555C201.5 71.4531 201.23 70.7852 200.746 70.332C200.27 69.8711 199.676 69.6406 198.965 69.6406ZM198.965 66.8867C200.027 66.8867 200.984 67.0859 201.836 67.4844C202.688 67.8828 203.391 68.5117 203.945 69.3711C204.445 70.1289 204.77 71.0078 204.918 72.0078C205.004 72.5938 205.039 73.4375 205.023 74.5391H196.281C196.328 75.8203 196.73 76.7188 197.488 77.2344C197.949 77.5547 198.504 77.7148 199.152 77.7148C199.84 77.7148 200.398 77.5195 200.828 77.1289C201.062 76.918 201.27 76.625 201.449 76.25H204.859C204.773 77.0078 204.379 77.7773 203.676 78.5586C202.582 79.8008 201.051 80.4219 199.082 80.4219C197.457 80.4219 196.023 79.8984 194.781 78.8516C193.539 77.8047 192.918 76.1016 192.918 73.7422C192.918 71.5312 193.477 69.8359 194.594 68.6562C195.719 67.4766 197.176 66.8867 198.965 66.8867ZM214.363 66.9219C215.684 66.9219 216.762 67.2695 217.598 67.9648C218.441 68.6523 218.863 69.7969 218.863 71.3984V80H215.441V72.2305C215.441 71.5586 215.352 71.043 215.172 70.6836C214.844 70.0273 214.219 69.6992 213.297 69.6992C212.164 69.6992 211.387 70.1797 210.965 71.1406C210.746 71.6484 210.637 72.2969 210.637 73.0859V80H207.309V67.25H210.531V69.1133C210.961 68.457 211.367 67.9844 211.75 67.6953C212.438 67.1797 213.309 66.9219 214.363 66.9219ZM220.645 69.7227V67.3438H222.426V63.7812H225.73V67.3438H227.805V69.7227H225.73V76.4727C225.73 76.9961 225.797 77.3242 225.93 77.457C226.062 77.582 226.469 77.6445 227.148 77.6445C227.25 77.6445 227.355 77.6445 227.465 77.6445C227.582 77.6367 227.695 77.6289 227.805 77.6211V80.1172L226.223 80.1758C224.645 80.2305 223.566 79.957 222.988 79.3555C222.613 78.9727 222.426 78.3828 222.426 77.5859V69.7227H220.645ZM250.902 66.9453C251.465 66.9453 252.02 67.0547 252.566 67.2734C253.113 67.4922 253.609 67.875 254.055 68.4219C254.414 68.8672 254.656 69.4141 254.781 70.0625C254.859 70.4922 254.898 71.1211 254.898 71.9492L254.875 80H251.453V71.8672C251.453 71.3828 251.375 70.9844 251.219 70.6719C250.922 70.0781 250.375 69.7812 249.578 69.7812C248.656 69.7812 248.02 70.1641 247.668 70.9297C247.488 71.3359 247.398 71.8242 247.398 72.3945V80H244.035V72.3945C244.035 71.6367 243.957 71.0859 243.801 70.7422C243.52 70.125 242.969 69.8164 242.148 69.8164C241.195 69.8164 240.555 70.125 240.227 70.7422C240.047 71.0938 239.957 71.6172 239.957 72.3125V80H236.57V67.25H239.816V69.1133C240.23 68.4492 240.621 67.9766 240.988 67.6953C241.637 67.1953 242.477 66.9453 243.508 66.9453C244.484 66.9453 245.273 67.1602 245.875 67.5898C246.359 67.9883 246.727 68.5 246.977 69.125C247.414 68.375 247.957 67.8242 248.605 67.4727C249.293 67.1211 250.059 66.9453 250.902 66.9453ZM265.023 73.7891C264.812 73.9219 264.598 74.0312 264.379 74.1172C264.168 74.1953 263.875 74.2695 263.5 74.3398L262.75 74.4805C262.047 74.6055 261.543 74.7578 261.238 74.9375C260.723 75.2422 260.465 75.7148 260.465 76.3555C260.465 76.9258 260.621 77.3398 260.934 77.5977C261.254 77.8477 261.641 77.9727 262.094 77.9727C262.812 77.9727 263.473 77.7617 264.074 77.3398C264.684 76.918 265 76.1484 265.023 75.0312V73.7891ZM262.996 72.2305C263.613 72.1523 264.055 72.0547 264.32 71.9375C264.797 71.7344 265.035 71.418 265.035 70.9883C265.035 70.4648 264.852 70.1055 264.484 69.9102C264.125 69.707 263.594 69.6055 262.891 69.6055C262.102 69.6055 261.543 69.8008 261.215 70.1914C260.98 70.4805 260.824 70.8711 260.746 71.3633H257.523C257.594 70.2461 257.906 69.3281 258.461 68.6094C259.344 67.4844 260.859 66.9219 263.008 66.9219C264.406 66.9219 265.648 67.1992 266.734 67.7539C267.82 68.3086 268.363 69.3555 268.363 70.8945V76.7539C268.363 77.1602 268.371 77.6523 268.387 78.2305C268.41 78.668 268.477 78.9648 268.586 79.1211C268.695 79.2773 268.859 79.4062 269.078 79.5078V80H265.445C265.344 79.7422 265.273 79.5 265.234 79.2734C265.195 79.0469 265.164 78.7891 265.141 78.5C264.68 79 264.148 79.4258 263.547 79.7773C262.828 80.1914 262.016 80.3984 261.109 80.3984C259.953 80.3984 258.996 80.0703 258.238 79.4141C257.488 78.75 257.113 77.8125 257.113 76.6016C257.113 75.0312 257.719 73.8945 258.93 73.1914C259.594 72.8086 260.57 72.5352 261.859 72.3711L262.996 72.2305ZM280.141 73.6133C280.141 72.6289 279.914 71.7578 279.461 71C279.016 70.2422 278.289 69.8633 277.281 69.8633C276.07 69.8633 275.238 70.4375 274.785 71.5859C274.551 72.1953 274.434 72.9688 274.434 73.9062C274.434 75.3906 274.828 76.4336 275.617 77.0352C276.086 77.3867 276.641 77.5625 277.281 77.5625C278.211 77.5625 278.918 77.2031 279.402 76.4844C279.895 75.7656 280.141 74.8086 280.141 73.6133ZM278.242 66.9453C279.734 66.9453 280.996 67.4961 282.027 68.5977C283.066 69.6992 283.586 71.3164 283.586 73.4492C283.586 75.6992 283.078 77.4141 282.062 78.5938C281.055 79.7734 279.754 80.3633 278.16 80.3633C277.145 80.3633 276.301 80.1094 275.629 79.6016C275.262 79.3203 274.902 78.9102 274.551 78.3711V85.0273H271.246V67.2266H274.445V69.1133C274.805 68.5586 275.188 68.1211 275.594 67.8008C276.336 67.2305 277.219 66.9453 278.242 66.9453Z" fill="white"/>
</svg>
