<svg width="307" height="375" viewBox="0 0 307 375" fill="none" xmlns="http://www.w3.org/2000/svg">
<path d="M189.047 569.066C192.058 569.762 194.143 572.508 194.004 575.595L190.965 643.321C190.785 647.322 187.021 650.179 183.12 649.276L130.793 637.172C127.782 636.476 125.698 633.73 125.836 630.643L128.876 562.916C129.055 558.916 132.819 556.059 136.72 556.961L189.047 569.066Z" stroke="#4807EA" stroke-width="5" stroke-miterlimit="10"/>
<path d="M145.408 680.953C148.418 681.649 150.503 684.395 150.364 687.482L147.962 741.076C147.782 745.076 144.019 747.933 140.118 747.031L114.807 741.178C114.755 741.166 114.719 741.118 114.722 741.065C114.726 740.971 114.62 740.915 114.545 740.971L114.459 741.037C114.421 741.065 114.372 741.076 114.325 741.065L8.23536 716.527C5.22541 715.831 3.14145 713.085 3.27982 709.999L5.68251 656.405C5.86185 652.404 9.62573 649.547 13.527 650.449L117.659 674.535L117.707 674.544L145.408 680.953Z" stroke="#4807EA" stroke-width="5" stroke-miterlimit="10"/>
<path d="M239.99 353.365C243 354.061 245.085 356.807 244.946 359.894L241.907 427.62C241.727 431.621 237.963 434.478 234.062 433.575L181.735 421.471C178.724 420.775 176.64 418.029 176.778 414.942L179.818 347.215C179.997 343.215 183.761 340.358 187.662 341.261L239.99 353.365Z" stroke="#4807EA" stroke-width="5" stroke-miterlimit="10"/>
<path d="M196.35 465.252C199.36 465.948 201.445 468.694 201.306 471.781L198.904 525.375C198.724 529.375 194.961 532.232 191.06 531.33L165.749 525.477C165.697 525.465 165.661 525.417 165.664 525.364C165.669 525.27 165.562 525.214 165.487 525.27L165.401 525.336C165.363 525.364 165.314 525.375 165.268 525.364L59.1774 500.826C56.1675 500.13 54.0835 497.384 54.2219 494.298L56.6246 440.704C56.8039 436.703 60.5678 433.846 64.4691 434.748L168.601 458.834L168.649 458.844L196.35 465.252Z" stroke="#4807EA" stroke-width="5" stroke-miterlimit="10"/>
<path d="M290.932 137.664C293.942 138.36 296.027 141.106 295.888 144.193L292.849 211.919C292.669 215.92 288.905 218.777 285.004 217.874L232.677 205.77C229.666 205.074 227.582 202.328 227.72 199.241L230.76 131.515C230.939 127.514 234.703 124.657 238.604 125.56L290.932 137.664Z" stroke="#4807EA" stroke-width="5" stroke-miterlimit="10"/>
<path d="M247.292 249.551C250.302 250.247 252.387 252.993 252.248 256.08L249.846 309.674C249.666 313.674 245.903 316.531 242.002 315.629L216.691 309.776C216.639 309.764 216.603 309.716 216.606 309.663C216.611 309.569 216.504 309.513 216.429 309.569L216.343 309.635C216.305 309.664 216.256 309.674 216.21 309.663L110.119 285.125C107.11 284.429 105.026 281.683 105.164 278.597L107.567 225.003C107.746 221.002 111.51 218.145 115.411 219.047L219.543 243.133L219.591 243.143L247.292 249.551Z" stroke="#4807EA" stroke-width="5" stroke-miterlimit="10"/>
<path d="M15.8672 612.464C12.8565 611.767 10.7718 609.021 10.9104 605.934L13.9499 538.208C14.1294 534.208 17.8936 531.35 21.7949 532.253L74.1215 544.357C77.1323 545.053 79.2172 547.799 79.0786 550.887L76.0391 618.613C75.8596 622.613 72.0956 625.47 68.1944 624.568L15.8672 612.464Z" stroke="#4807EA" stroke-width="5" stroke-miterlimit="10"/>
<path d="M66.8093 396.763C63.7986 396.066 61.7139 393.32 61.8525 390.233L64.892 322.507C65.0715 318.507 68.8356 315.649 72.7369 316.552L125.064 328.656C128.074 329.352 130.159 332.098 130.021 335.186L126.981 402.912C126.802 406.912 123.038 409.769 119.136 408.867L66.8093 396.763Z" stroke="#4807EA" stroke-width="5" stroke-miterlimit="10"/>
<path d="M117.751 181.062C114.741 180.365 112.656 177.619 112.795 174.532L115.834 106.806C116.014 102.806 119.778 99.9484 123.679 100.851L176.006 112.955C179.017 113.651 181.101 116.397 180.963 119.485L177.923 187.211C177.744 191.211 173.98 194.068 170.079 193.166L117.751 181.062Z" stroke="#4807EA" stroke-width="5" stroke-miterlimit="10"/>
<path d="M161.391 69.1744C158.381 68.478 156.296 65.7322 156.435 62.6454L158.837 9.05164C159.017 5.05159 162.78 2.1943 166.681 3.09642L191.992 8.94938C192.044 8.96143 192.08 9.00909 192.077 9.06251C192.072 9.15627 192.179 9.21276 192.254 9.15599L192.34 9.09074C192.378 9.06189 192.427 9.05143 192.473 9.06218L298.563 33.5999C301.573 34.2967 303.657 37.0424 303.519 40.1288L301.116 93.7226C300.937 97.7229 297.173 100.58 293.272 99.6779L189.14 75.5922L189.092 75.5828L161.391 69.1744Z" stroke="#4807EA" stroke-width="5" stroke-miterlimit="10"/>
</svg>
