<svg width="191" height="57" viewBox="0 0 191 57" fill="none" xmlns="http://www.w3.org/2000/svg">
<g clip-path="url(#clip0_8_50)" filter="url(#filter0_d_8_50)">
<path d="M66.25 19.4277C66.7284 20.0024 66.7284 20.8367 66.25 21.4114L55.7547 34.0199C55.1348 34.7646 53.9913 34.7645 53.3714 34.0197L49.4593 29.3188L45.0573 24.0306C44.5788 23.4559 44.5788 22.6216 45.0573 22.0469L46.4118 20.4196L55.5525 9.43839C56.1724 8.69368 57.3159 8.69372 57.9358 9.43848L61.9709 14.2868L66.25 19.4277Z" fill="#4807EA"/>
<path d="M41.4682 34.6071C41.9465 35.1817 41.9465 36.0159 41.4682 36.5906L37.25 41.6589L33.1635 46.5685C32.5436 47.3132 31.4002 47.3132 30.7803 46.5685L26.7585 41.7371C26.7502 41.7272 26.7503 41.7127 26.7586 41.7028C26.7732 41.6855 26.7609 41.6589 26.7381 41.6589H26.712C26.7005 41.6589 26.6895 41.6538 26.6821 41.6449L21.5087 35.4302L10.9139 22.7016L9.82518 21.3929C9.34701 20.8182 9.34709 19.9841 9.82536 19.4095L18.1301 9.4317C18.75 8.68694 19.8935 8.68694 20.5133 9.43169L29.6589 20.4196L31.8314 23.0291L37.0591 29.3101L37.0669 29.3188L41.4682 34.6071Z" fill="#4807EA"/>
</g>
<path d="M80.1789 31.1112C80.2919 31.9259 80.5137 32.5349 80.8444 32.9382C81.4493 33.6722 82.4858 34.0392 83.9538 34.0392C84.833 34.0392 85.5469 33.9424 86.0954 33.7488C87.1359 33.3778 87.6562 32.6881 87.6562 31.6798C87.6562 31.091 87.398 30.6353 86.8818 30.3127C86.3656 29.9981 85.5549 29.7198 84.4499 29.4778L82.5624 29.0543C80.7073 28.6349 79.4248 28.1792 78.7149 27.6872C77.5131 26.8644 76.9122 25.5779 76.9122 23.8275C76.9122 22.2305 77.4929 20.9036 78.6544 19.847C79.816 18.7903 81.5219 18.262 83.7724 18.262C85.6517 18.262 87.2529 18.7621 88.5757 19.7623C89.9066 20.7544 90.6043 22.1982 90.6688 24.0937H87.0875C87.023 23.0209 86.5551 22.2587 85.684 21.807C85.1033 21.5086 84.3813 21.3593 83.5183 21.3593C82.5584 21.3593 81.7921 21.5529 81.2194 21.9401C80.6468 22.3273 80.3604 22.8677 80.3604 23.5614C80.3604 24.1986 80.6427 24.6745 81.2073 24.9891C81.5703 25.1988 82.3447 25.4448 83.5304 25.7271L86.6035 26.4651C87.9506 26.7878 88.9669 27.2193 89.6525 27.7597C90.7172 28.5986 91.2496 29.8126 91.2496 31.4016C91.2496 33.0309 90.6245 34.386 89.3742 35.4669C88.1321 36.5396 86.3737 37.076 84.099 37.076C81.776 37.076 79.949 36.5477 78.6181 35.4911C77.2872 34.4263 76.6218 32.9664 76.6218 31.1112H80.1789ZM99.9488 23.4283H103.445L105.454 32.9261L107.511 23.4283H111.104L107.281 36.6163H103.736L101.667 27.0096L99.5737 36.6163H95.9924L92.2901 23.4283H95.9924L98.0493 32.8898L99.9488 23.4283ZM118.218 25.9207C117.42 25.9207 116.799 26.1707 116.355 26.6708C115.92 27.1709 115.645 27.8485 115.532 28.7035H120.892C120.836 27.792 120.558 27.1024 120.057 26.6345C119.565 26.1586 118.952 25.9207 118.218 25.9207ZM118.218 23.0774C119.315 23.0774 120.304 23.2831 121.183 23.6945C122.062 24.1058 122.788 24.7551 123.361 25.6424C123.877 26.4248 124.212 27.3322 124.365 28.3647C124.453 28.9697 124.49 29.8408 124.474 30.9781H115.448C115.496 32.3009 115.912 33.2285 116.694 33.7609C117.17 34.0916 117.743 34.257 118.412 34.257C119.122 34.257 119.699 34.0553 120.142 33.652C120.384 33.4342 120.598 33.1317 120.783 32.7446H124.304C124.216 33.527 123.808 34.3215 123.082 35.1281C121.953 36.4106 120.372 37.0518 118.339 37.0518C116.662 37.0518 115.182 36.5114 113.899 35.4306C112.617 34.3497 111.975 32.5913 111.975 30.1554C111.975 27.8727 112.552 26.1223 113.705 24.9044C114.867 23.6864 116.371 23.0774 118.218 23.0774ZM132.011 25.9207C131.213 25.9207 130.592 26.1707 130.148 26.6708C129.713 27.1709 129.438 27.8485 129.325 28.7035H134.685C134.629 27.792 134.351 27.1024 133.85 26.6345C133.358 26.1586 132.745 25.9207 132.011 25.9207ZM132.011 23.0774C133.108 23.0774 134.096 23.2831 134.976 23.6945C135.855 24.1058 136.581 24.7551 137.153 25.6424C137.67 26.4248 138.004 27.3322 138.158 28.3647C138.246 28.9697 138.283 29.8408 138.267 30.9781H129.241C129.289 32.3009 129.704 33.2285 130.487 33.7609C130.963 34.0916 131.535 34.257 132.205 34.257C132.915 34.257 133.491 34.0553 133.935 33.652C134.177 33.4342 134.391 33.1317 134.576 32.7446H138.097C138.008 33.527 137.601 34.3215 136.875 35.1281C135.746 36.4106 134.165 37.0518 132.132 37.0518C130.455 37.0518 128.975 36.5114 127.692 35.4306C126.41 34.3497 125.768 32.5913 125.768 30.1554C125.768 27.8727 126.345 26.1223 127.498 24.9044C128.66 23.6864 130.164 23.0774 132.011 23.0774ZM148.732 23.4283H152.435L147.68 36.6163H144.038L139.307 23.4283H143.179L145.925 33.1559L148.732 23.4283ZM159.597 25.9207C158.799 25.9207 158.178 26.1707 157.734 26.6708C157.298 27.1709 157.024 27.8485 156.911 28.7035H162.271C162.215 27.792 161.936 27.1024 161.436 26.6345C160.944 26.1586 160.331 25.9207 159.597 25.9207ZM159.597 23.0774C160.694 23.0774 161.682 23.2831 162.562 23.6945C163.441 24.1058 164.167 24.7551 164.739 25.6424C165.256 26.4248 165.59 27.3322 165.744 28.3647C165.832 28.9697 165.869 29.8408 165.852 30.9781H156.827C156.875 32.3009 157.29 33.2285 158.073 33.7609C158.549 34.0916 159.121 34.257 159.791 34.257C160.501 34.257 161.077 34.0553 161.521 33.652C161.763 33.4342 161.977 33.1317 162.162 32.7446H165.683C165.594 33.527 165.187 34.3215 164.461 35.1281C163.332 36.4106 161.751 37.0518 159.718 37.0518C158.041 37.0518 156.56 36.5114 155.278 35.4306C153.995 34.3497 153.354 32.5913 153.354 30.1554C153.354 27.8727 153.931 26.1223 155.084 24.9044C156.246 23.6864 157.75 23.0774 159.597 23.0774ZM175.495 23.1137C176.859 23.1137 177.972 23.4726 178.835 24.1905C179.706 24.9003 180.142 26.082 180.142 27.7355V36.6163H176.609V28.5946C176.609 27.9009 176.516 27.3685 176.33 26.9975C175.992 26.32 175.346 25.9812 174.394 25.9812C173.225 25.9812 172.422 26.4772 171.987 27.4694C171.761 27.9937 171.648 28.6631 171.648 29.4778V36.6163H168.212V23.4525H171.539V25.3762C171.983 24.6987 172.402 24.2107 172.797 23.9122C173.507 23.3799 174.407 23.1137 175.495 23.1137ZM181.981 26.0054V23.5493H183.82V19.8711H187.232V23.5493H189.373V26.0054H187.232V32.9744C187.232 33.5149 187.3 33.8536 187.437 33.9908C187.574 34.1198 187.994 34.1844 188.696 34.1844C188.8 34.1844 188.909 34.1844 189.022 34.1844C189.143 34.1763 189.26 34.1682 189.373 34.1602V36.7373L187.74 36.7978C186.11 36.8542 184.997 36.5719 184.4 35.9508C184.013 35.5556 183.82 34.9466 183.82 34.1239V26.0054H181.981Z" fill="white"/>
<defs>
<filter id="filter0_d_8_50" x="-0.0988379" y="-0.711241" width="76.2732" height="58.1977" filterUnits="userSpaceOnUse" color-interpolation-filters="sRGB">
<feFlood flood-opacity="0" result="BackgroundImageFix"/>
<feColorMatrix in="SourceAlpha" type="matrix" values="0 0 0 0 0 0 0 0 0 0 0 0 0 0 0 0 0 0 127 0" result="hardAlpha"/>
<feOffset dy="0.387597"/>
<feGaussianBlur stdDeviation="4.54942"/>
<feComposite in2="hardAlpha" operator="out"/>
<feColorMatrix type="matrix" values="0 0 0 0 0.282353 0 0 0 0 0.027451 0 0 0 0 0.917647 0 0 0 0.2 0"/>
<feBlend mode="normal" in2="BackgroundImageFix" result="effect1_dropShadow_8_50"/>
<feBlend mode="normal" in="SourceGraphic" in2="effect1_dropShadow_8_50" result="shape"/>
</filter>
<clipPath id="clip0_8_50">
<rect width="58.0756" height="40" fill="white" transform="translate(9 8)"/>
</clipPath>
</defs>
</svg>
