<svg width="496" height="92" viewBox="0 0 496 92" fill="none" xmlns="http://www.w3.org/2000/svg">
<path d="M248 0.5V38C248.167 40.5 246.9 45.5 240.5 45.5H173.5C171.167 45.1667 166.5 46.1 166.5 52.5V91.5M248.514 0.5V38C248.347 40.5 249.614 45.5 256.014 45.5M256.014 45.5H323.014C325.347 45.1667 330.014 46.1 330.014 52.5V91.5M256.014 45.5H488.014C490.347 45.1667 495.014 46.1 495.014 52.5V91.5M247.5 0.5V38C247.667 40.5 246.4 45.5 240 45.5H8C5.66667 45.1667 1 46.1 1 52.5V91.5" stroke="#EAEAEC" stroke-linecap="round"/>
</svg>
