<svg width="243" height="675" viewBox="0 0 243 675" fill="none" xmlns="http://www.w3.org/2000/svg">
<path d="M208.263 538.805C211.305 538.26 214.302 539.964 215.39 542.856L239.261 606.308C240.671 610.056 238.336 614.165 234.395 614.871L181.529 624.347C178.487 624.892 175.489 623.189 174.401 620.296L150.53 556.843C149.12 553.096 151.455 548.987 155.397 548.281L208.263 538.805Z" stroke="#4807EA" stroke-width="5" stroke-miterlimit="10"/>
<path d="M212.2 658.837C215.242 658.292 218.239 659.996 219.327 662.887L238.219 713.098C239.629 716.846 237.295 720.954 233.353 721.661L207.783 726.246C207.73 726.255 207.679 726.226 207.66 726.176C207.627 726.088 207.507 726.078 207.46 726.159L207.407 726.253C207.383 726.295 207.343 726.324 207.296 726.332L100.113 745.546C97.0723 746.09 94.0757 744.387 92.9876 741.495L74.0954 691.284C72.6853 687.536 75.0201 683.428 78.9616 682.721L184.166 663.863L184.213 663.853L212.2 658.837Z" stroke="#4807EA" stroke-width="5" stroke-miterlimit="10"/>
<path d="M170.165 320.469C173.207 319.924 176.204 321.628 177.292 324.52L201.163 387.973C202.573 391.721 200.238 395.829 196.297 396.535L143.431 406.011C140.389 406.556 137.391 404.853 136.303 401.96L112.432 338.508C111.022 334.76 113.357 330.651 117.299 329.945L170.165 320.469Z" stroke="#4807EA" stroke-width="5" stroke-miterlimit="10"/>
<path d="M174.102 440.501C177.144 439.956 180.141 441.66 181.229 444.552L200.121 494.763C201.531 498.51 199.197 502.618 195.255 503.325L169.685 507.91C169.632 507.92 169.581 507.89 169.562 507.84C169.529 507.752 169.409 507.742 169.362 507.824L169.309 507.917C169.286 507.959 169.245 507.988 169.198 507.996L62.0155 527.21C58.9743 527.754 55.9777 526.051 54.8897 523.159L35.9974 472.948C34.5873 469.201 36.9222 465.092 40.8636 464.386L146.068 445.527L146.115 445.517L174.102 440.501Z" stroke="#4807EA" stroke-width="5" stroke-miterlimit="10"/>
<path d="M132.067 102.134C135.109 101.588 138.106 103.292 139.194 106.184L163.065 169.637C164.475 173.385 162.14 177.493 158.199 178.199L105.333 187.675C102.291 188.22 99.2935 186.517 98.2053 183.624L74.3342 120.172C72.9243 116.424 75.2593 112.316 79.2008 111.609L132.067 102.134Z" stroke="#4807EA" stroke-width="5" stroke-miterlimit="10"/>
<path d="M136.004 222.166C139.046 221.621 142.043 223.324 143.131 226.216L162.023 276.427C163.433 280.174 161.099 284.283 157.158 284.989L131.587 289.574C131.534 289.584 131.483 289.554 131.464 289.504C131.431 289.416 131.311 289.406 131.264 289.488L131.211 289.581C131.188 289.623 131.147 289.652 131.1 289.66L23.9176 308.874C20.8764 309.419 17.8797 307.715 16.7917 304.824L-2.10054 254.613C-3.51068 250.865 -1.17583 246.756 2.76566 246.05L107.97 227.191L108.017 227.181L136.004 222.166Z" stroke="#4807EA" stroke-width="5" stroke-miterlimit="10"/>
<path d="M66.157 646.882C63.1153 647.428 60.1179 645.724 59.0298 642.832L35.1587 579.379C33.7488 575.631 36.0839 571.523 40.0255 570.816L92.8914 561.341C95.9332 560.795 98.9308 562.499 100.019 565.391L123.89 628.844C125.3 632.592 122.965 636.7 119.023 637.407L66.157 646.882Z" stroke="#4807EA" stroke-width="5" stroke-miterlimit="10"/>
<path d="M28.0591 428.546C25.0174 429.092 22.0199 427.388 20.9318 424.496L-2.93922 361.043C-4.3492 357.295 -2.01403 353.187 1.92759 352.481L54.7934 343.005C57.8352 342.46 60.8328 344.163 61.9209 347.055L85.792 410.508C87.202 414.256 84.867 418.364 80.9255 419.071L28.0591 428.546Z" stroke="#4807EA" stroke-width="5" stroke-miterlimit="10"/>
<path d="M-10.0389 210.211C-13.0806 210.756 -16.0781 209.052 -17.1662 206.16L-41.0372 142.707C-42.4472 138.959 -40.112 134.851 -36.1704 134.145L16.6954 124.669C19.7372 124.124 22.7349 125.827 23.823 128.72L47.694 192.172C49.104 195.92 46.769 200.029 42.8275 200.735L-10.0389 210.211Z" stroke="#4807EA" stroke-width="5" stroke-miterlimit="10"/>
<path d="M-13.976 90.1785C-17.0174 90.7236 -20.0146 89.0203 -21.1028 86.1284L-39.9951 35.9174C-41.405 32.1698 -39.0704 28.0614 -35.1292 27.3548L-9.5588 22.7699C-9.50615 22.7604 -9.4543 22.7901 -9.43573 22.8402C-9.40313 22.9283 -9.28251 22.9381 -9.23613 22.8564L-9.18281 22.7626C-9.15924 22.7211 -9.11845 22.6923 -9.07148 22.6839L98.1108 3.47002C101.152 2.9255 104.149 4.62889 105.237 7.52054L124.129 57.7316C125.539 61.4794 123.204 65.5879 119.263 66.2944L14.058 85.1529L14.0108 85.1629L-13.976 90.1785Z" stroke="#4807EA" stroke-width="5" stroke-miterlimit="10"/>
</svg>
