<svg width="820" height="92" viewBox="0 0 820 92" fill="none" xmlns="http://www.w3.org/2000/svg">
<path d="M410 0.5V38C410.167 40.5 408.9 45.5 402.5 45.5H335.5C333.167 45.1667 328.5 46.1 328.5 52.5V91.5M410.514 0.5V38C410.347 40.5 411.614 45.5 418.014 45.5M418.014 45.5H485.014C487.347 45.1667 492.014 46.1 492.014 52.5V91.5M418.014 45.5H650.014C652.347 45.1667 657.014 46.1 657.014 52.5V91.5M418.014 45.5H812.014C814.347 45.1667 819.014 46.1 819.014 52.5V91.5M409.5 0.5V38C409.667 40.5 408.4 45.5 402 45.5M402 45.5H170C167.667 45.1667 163 46.1 163 52.5V91.5M402 45.5H8C5.66667 45.1667 1 46.1 1 52.5V91.5" stroke="#EAEAEC" stroke-linecap="round"/>
</svg>
